<?xml version="1.0" encoding="UTF-8" standalone="no"?>
<!-- Created with Inkscape (http://www.inkscape.org/) -->

<svg
   xmlns:dc="http://purl.org/dc/elements/1.1/"
   xmlns:cc="http://creativecommons.org/ns#"
   xmlns:rdf="http://www.w3.org/1999/02/22-rdf-syntax-ns#"
   xmlns:svg="http://www.w3.org/2000/svg"
   xmlns="http://www.w3.org/2000/svg"
   xmlns:sodipodi="http://sodipodi.sourceforge.net/DTD/sodipodi-0.dtd"
   xmlns:inkscape="http://www.inkscape.org/namespaces/inkscape"
   width="84"
   height="46"
   id="svg2"
   version="1.1"
   inkscape:version="0.48.4 r9939"
   sodipodi:docname="logo.svg"
   inkscape:export-filename="/home/samuel/git/ftc/public/images/logo.png"
   inkscape:export-xdpi="90"
   inkscape:export-ydpi="90">
  <defs
     id="defs4" />
  <sodipodi:namedview
     id="base"
     pagecolor="#ffffff"
     bordercolor="#666666"
     borderopacity="1.0"
     inkscape:pageopacity="0.0"
     inkscape:pageshadow="2"
     inkscape:zoom="7.9195959"
     inkscape:cx="14.066402"
     inkscape:cy="11.569557"
     inkscape:document-units="px"
     inkscape:current-layer="g3839"
     showgrid="false"
     showguides="true"
     inkscape:guide-bbox="true"
     inkscape:window-width="1920"
     inkscape:window-height="1009"
     inkscape:window-x="0"
     inkscape:window-y="0"
     inkscape:window-maximized="1" />
  <metadata
     id="metadata7">
    <rdf:RDF>
      <cc:Work
         rdf:about="">
        <dc:format>image/svg+xml</dc:format>
        <dc:type
           rdf:resource="http://purl.org/dc/dcmitype/StillImage" />
        <dc:title></dc:title>
      </cc:Work>
    </rdf:RDF>
  </metadata>
  <g
     inkscape:label="Layer 1"
     inkscape:groupmode="layer"
     id="layer1"
     transform="translate(0,-1006.3622)">
    <g
       style="font-size:54.44547653px;font-style:normal;font-weight:normal;line-height:125%;letter-spacing:0px;word-spacing:0px;fill:#000000;fill-opacity:1;stroke:none;font-family:Sans"
       id="text2985"
       transform="translate(0,-2.1365572)">
      <path
         d="m 19.981746,1016.9087 0,2.9883 -4.082031,0 c -1.289078,0 -2.187515,0.267 -2.695313,0.8008 -0.494805,0.5208 -0.742201,1.4518 -0.742187,2.793 l 0,1.9336 7.519531,0 0,2.7929 -7.519531,0 0,19.0821 -3.5937504,0 0,-19.0821 -5.8398438,0 0,-2.7929 5.8398438,0 0,-1.5235 c -9.7e-6,-2.3958 0.5468648,-4.1601 1.6406254,-5.293 1.106758,-1.1327 2.825506,-1.6991 5.15625,-1.6992 l 4.316406,0"
         style="font-size:40px;font-variant:normal;font-stretch:normal;font-family:Monospace;-inkscape-font-specification:Monospace;fill:#27ae60;fill-opacity:1"
         id="path3833"
         inkscape:connector-curvature="0" />
      <path
         d="m 33.778694,1014.2916 c -1.731786,2.9688 -3.027358,5.931 -3.886718,8.8867 -0.846367,2.9427 -1.269544,5.9115 -1.269532,8.9063 -1.2e-5,2.9817 0.423165,5.9505 1.269532,8.9062 0.85936,2.9557 2.154932,5.931 3.886718,8.9258 l -3.125,0 c -1.966158,-3.099 -3.431,-6.1133 -4.394531,-9.043 -0.96355,-2.9427 -1.445321,-5.8724 -1.445312,-8.789 -9e-6,-2.9037 0.481762,-5.8268 1.445312,-8.7696 0.963531,-2.9427 2.428373,-5.9505 4.394531,-9.0234 l 3.125,0"
         style="font-size:40px;font-variant:normal;font-stretch:normal;font-family:Monospace;-inkscape-font-specification:Monospace;fill:#27ae60;fill-opacity:1"
         id="path3835"
         inkscape:connector-curvature="0" />
      <path
         d="m 64.396025,1014.2916 3.125,0 c 1.966134,3.0729 3.430976,6.0807 4.394531,9.0234 0.963527,2.9428 1.445297,5.8659 1.445313,8.7696 -1.6e-5,2.9297 -0.481786,5.8658 -1.445313,8.8086 -0.963555,2.9427 -2.428397,5.9505 -4.394531,9.0234 l -3.125,0 c 1.731762,-3.0208 3.020824,-6.0091 3.867188,-8.9649 0.859363,-2.9557 1.28905,-5.9114 1.289062,-8.8671 -1.2e-5,-2.9688 -0.429699,-5.931 -1.289062,-8.8868 -0.846364,-2.9557 -2.135426,-5.9244 -3.867188,-8.9062"
         style="font-size:40px;font-variant:normal;font-stretch:normal;font-family:Monospace;-inkscape-font-specification:Monospace;fill:#27ae60;fill-opacity:1"
         id="path3837"
         inkscape:connector-curvature="0" />
    </g>
    <g
       id="g3839"
       transform="matrix(0.76834902,0,0,0.85378943,4.4471405,152.50943)"
       style="stroke:#27ae60;stroke-opacity:1">
      <rect
         ry="10.849162"
         y="1008.3415"
         x="48.42408"
         height="39.252022"
         width="20.830221"
         id="rect2993"
         style="fill:none;stroke:#27ae60;stroke-width:3.06564641;stroke-opacity:1;stroke-miterlimit:4;stroke-dasharray:none" />
      <path
         sodipodi:nodetypes="cc"
         inkscape:connector-curvature="0"
         id="path3009"
         d="m 69.127418,1026.2057 c -3.440339,8.3762 -20.117852,5.3654 -20.528932,-0.2949"
         style="fill:none;stroke:#27ae60;stroke-width:2.93847702;stroke-linecap:butt;stroke-linejoin:miter;stroke-opacity:1;stroke-miterlimit:4;stroke-dasharray:none" />
    </g>
  </g>
</svg>
