<?xml version="1.0" encoding="UTF-8" standalone="no"?>
<!DOCTYPE svg PUBLIC "-//W3C//DTD SVG 1.1//EN"
 "http://www.w3.org/Graphics/SVG/1.1/DTD/svg11.dtd">
<!-- Generated by graphviz version 2.26.3 (20100126.1600)
 -->
<!-- Title: G Pages: 1 -->
<svg viewBox="0.00 0.00 454.00 186.00" xmlns="http://www.w3.org/2000/svg" xmlns:xlink="http://www.w3.org/1999/xlink">
<g id="graph1" class="graph" transform="scale(1 1) rotate(0) translate(4 182)">
<title>G</title>
<polygon fill="white" stroke="white" points="-4,5 -4,-182 451,-182 451,5 -4,5"/>
<!-- FTC_A0030168 -->
<g id="node1" class="node"><title>FTC_A0030168</title>
<a target='_top' xlink:href="http://localhost:9000/FTC_A0030168" xlink:title="FTC_A0030168\nAnti&#45;platelet activation agent">
<polygon fill="#00ece4" stroke="springgreen" points="219,-18 75,-18 75,-5.32907e-15 219,-0 219,-18"/>
<text text-anchor="middle" x="147" y="-11.6" font-family="Times Roman,serif" font-size="6.00">FTC_A0030168</text>
<text text-anchor="middle" x="147" y="-3.6" font-family="Times Roman,serif" font-size="6.00">Anti&#45;platelet activation agent</text>
</a>
</g>
<!-- FTC_A0001775 -->
<g id="node3" class="node"><title>FTC_A0001775</title>
<a target='_top' xlink:href="http://localhost:9000/FTC_A0001775" xlink:title="FTC_A0001775\nAnti&#45;cell activation agent">
<polygon fill="springgreen" stroke="springgreen" points="144,-50 4.26326e-14,-50 1.42109e-14,-32 144,-32 144,-50"/>
<text text-anchor="middle" x="72" y="-43.6" font-family="Times Roman,serif" font-size="6.00">FTC_A0001775</text>
<text text-anchor="middle" x="72" y="-35.6" font-family="Times Roman,serif" font-size="6.00">Anti&#45;cell activation agent</text>
</a>
</g>
<!-- FTC_A0030168&#45;&gt;FTC_A0001775 -->
<g id="edge2" class="edge"><title>FTC_A0030168&#45;&gt;FTC_A0001775</title>
<path fill="none" stroke="gray" d="M125.709,-18.0843C116.525,-22.0028 105.735,-26.6064 96.2449,-30.6555"/>
<polygon fill="gray" stroke="gray" points="95.6919,-29.7498 93.3446,-31.893 96.516,-31.6814 95.6919,-29.7498"/>
</g>
<!-- FTC_A0007596 -->
<g id="node11" class="node"><title>FTC_A0007596</title>
<a target='_top' xlink:href="http://localhost:9000/FTC_A0007596" xlink:title="FTC_A0007596\nAnti&#45;blood coagulation agent">
<polygon fill="springgreen" stroke="springgreen" points="295,-50 151,-50 151,-32 295,-32 295,-50"/>
<text text-anchor="middle" x="223" y="-43.6" font-family="Times Roman,serif" font-size="6.00">FTC_A0007596</text>
<text text-anchor="middle" x="223" y="-35.6" font-family="Times Roman,serif" font-size="6.00">Anti&#45;blood coagulation agent</text>
</a>
</g>
<!-- FTC_A0030168&#45;&gt;FTC_A0007596 -->
<g id="edge10" class="edge"><title>FTC_A0030168&#45;&gt;FTC_A0007596</title>
<path fill="none" stroke="gray" d="M168.575,-18.0843C177.882,-22.0028 188.815,-26.6064 198.432,-30.6555"/>
<polygon fill="gray" stroke="gray" points="198.198,-31.6965 201.371,-31.893 199.013,-29.761 198.198,-31.6965"/>
</g>
<!-- FTC_A0009987 -->
<g id="node5" class="node"><title>FTC_A0009987</title>
<a target='_top' xlink:href="http://localhost:9000/FTC_A0009987" xlink:title="FTC_A0009987\nAnti&#45;cellular process agent">
<polygon fill="springgreen" stroke="springgreen" points="144,-114 4.26326e-14,-114 1.42109e-14,-96 144,-96 144,-114"/>
<text text-anchor="middle" x="72" y="-107.6" font-family="Times Roman,serif" font-size="6.00">FTC_A0009987</text>
<text text-anchor="middle" x="72" y="-99.6" font-family="Times Roman,serif" font-size="6.00">Anti&#45;cellular process agent</text>
</a>
</g>
<!-- FTC_A0001775&#45;&gt;FTC_A0009987 -->
<g id="edge4" class="edge"><title>FTC_A0001775&#45;&gt;FTC_A0009987</title>
<path fill="none" stroke="gray" d="M72,-50.1696C72,-61.3855 72,-80.4091 72,-92.8383"/>
<polygon fill="gray" stroke="gray" points="70.9501,-92.8473 72,-95.8474 73.0501,-92.8474 70.9501,-92.8473"/>
</g>
<!-- FTC_A0008150 -->
<g id="node7" class="node"><title>FTC_A0008150</title>
<a target='_top' xlink:href="http://localhost:9000/FTC_A0008150" xlink:title="FTC_A0008150\nAnti&#45;biological_process agent">
<polygon fill="springgreen" stroke="springgreen" points="295,-146 151,-146 151,-128 295,-128 295,-146"/>
<text text-anchor="middle" x="223" y="-139.6" font-family="Times Roman,serif" font-size="6.00">FTC_A0008150</text>
<text text-anchor="middle" x="223" y="-131.6" font-family="Times Roman,serif" font-size="6.00">Anti&#45;biological_process agent</text>
</a>
</g>
<!-- FTC_A0009987&#45;&gt;FTC_A0008150 -->
<g id="edge6" class="edge"><title>FTC_A0009987&#45;&gt;FTC_A0008150</title>
<path fill="none" stroke="gray" d="M114.867,-114.084C134.236,-118.189 157.154,-123.046 176.895,-127.229"/>
<polygon fill="gray" stroke="gray" points="177.135,-128.354 180.288,-127.948 177.571,-126.299 177.135,-128.354"/>
</g>
<!-- FTC_C1 -->
<g id="node9" class="node"><title>FTC_C1</title>
<a target='_top' xlink:href="http://localhost:9000/FTC_C1" xlink:title="FTC_C1\ntherapeutic agent">
<polygon fill="springgreen" stroke="springgreen" points="295,-178 151,-178 151,-160 295,-160 295,-178"/>
<text text-anchor="middle" x="223" y="-171.6" font-family="Times Roman,serif" font-size="6.00">FTC_C1</text>
<text text-anchor="middle" x="223" y="-163.6" font-family="Times Roman,serif" font-size="6.00">therapeutic agent</text>
</a>
</g>
<!-- FTC_A0008150&#45;&gt;FTC_C1 -->
<g id="edge8" class="edge"><title>FTC_A0008150&#45;&gt;FTC_C1</title>
<path fill="none" stroke="gray" d="M223,-146.084C223,-149.299 223,-152.976 223,-156.429"/>
<polygon fill="gray" stroke="gray" points="221.95,-156.782 223,-159.782 224.05,-156.782 221.95,-156.782"/>
</g>
<!-- FTC_A0007599 -->
<g id="node13" class="node"><title>FTC_A0007599</title>
<a target='_top' xlink:href="http://localhost:9000/FTC_A0007599" xlink:title="FTC_A0007599\nAnti&#45;hemostasis agent">
<polygon fill="springgreen" stroke="springgreen" points="295,-82 151,-82 151,-64 295,-64 295,-82"/>
<text text-anchor="middle" x="223" y="-75.6" font-family="Times Roman,serif" font-size="6.00">FTC_A0007599</text>
<text text-anchor="middle" x="223" y="-67.6" font-family="Times Roman,serif" font-size="6.00">Anti&#45;hemostasis agent</text>
</a>
</g>
<!-- FTC_A0007596&#45;&gt;FTC_A0007599 -->
<g id="edge12" class="edge"><title>FTC_A0007596&#45;&gt;FTC_A0007599</title>
<path fill="none" stroke="gray" d="M223,-50.0843C223,-53.2994 223,-56.9759 223,-60.4288"/>
<polygon fill="gray" stroke="gray" points="221.95,-60.7818 223,-63.7818 224.05,-60.7819 221.95,-60.7818"/>
</g>
<!-- FTC_A0050817 -->
<g id="node21" class="node"><title>FTC_A0050817</title>
<a target='_top' xlink:href="http://localhost:9000/FTC_A0050817" xlink:title="FTC_A0050817\nAnti&#45;coagulation agent">
<polygon fill="springgreen" stroke="springgreen" points="446,-82 302,-82 302,-64 446,-64 446,-82"/>
<text text-anchor="middle" x="374" y="-75.6" font-family="Times Roman,serif" font-size="6.00">FTC_A0050817</text>
<text text-anchor="middle" x="374" y="-67.6" font-family="Times Roman,serif" font-size="6.00">Anti&#45;coagulation agent</text>
</a>
</g>
<!-- FTC_A0007596&#45;&gt;FTC_A0050817 -->
<g id="edge22" class="edge"><title>FTC_A0007596&#45;&gt;FTC_A0050817</title>
<path fill="none" stroke="gray" d="M265.867,-50.0843C285.236,-54.1891 308.154,-59.0459 327.895,-63.2294"/>
<polygon fill="gray" stroke="gray" points="328.135,-64.3536 331.288,-63.9484 328.571,-62.2992 328.135,-64.3536"/>
</g>
<!-- FTC_A0032501 -->
<g id="node15" class="node"><title>FTC_A0032501</title>
<a target='_top' xlink:href="http://localhost:9000/FTC_A0032501" xlink:title="FTC_A0032501\nAnti&#45;multicellular organismal process agent">
<polygon fill="springgreen" stroke="springgreen" points="446,-114 302,-114 302,-96 446,-96 446,-114"/>
<text text-anchor="middle" x="374" y="-107.6" font-family="Times Roman,serif" font-size="6.00">FTC_A0032501</text>
<text text-anchor="middle" x="374" y="-99.6" font-family="Times Roman,serif" font-size="6.00">Anti&#45;multicellular organismal process agent</text>
</a>
</g>
<!-- FTC_A0007599&#45;&gt;FTC_A0032501 -->
<g id="edge14" class="edge"><title>FTC_A0007599&#45;&gt;FTC_A0032501</title>
<path fill="none" stroke="gray" d="M265.867,-82.0843C285.236,-86.1891 308.154,-91.0459 327.895,-95.2294"/>
<polygon fill="gray" stroke="gray" points="328.135,-96.3536 331.288,-95.9484 328.571,-94.2992 328.135,-96.3536"/>
</g>
<!-- FTC_A0044707 -->
<g id="node18" class="node"><title>FTC_A0044707</title>
<a target='_top' xlink:href="http://localhost:9000/FTC_A0044707" xlink:title="FTC_A0044707\nAnti&#45;single&#45;multicellular organism process agent">
<polygon fill="springgreen" stroke="springgreen" points="295,-114 151,-114 151,-96 295,-96 295,-114"/>
<text text-anchor="middle" x="223" y="-107.6" font-family="Times Roman,serif" font-size="6.00">FTC_A0044707</text>
<text text-anchor="middle" x="223" y="-99.6" font-family="Times Roman,serif" font-size="6.00">Anti&#45;single&#45;multicellular organism process agent</text>
</a>
</g>
<!-- FTC_A0007599&#45;&gt;FTC_A0044707 -->
<g id="edge18" class="edge"><title>FTC_A0007599&#45;&gt;FTC_A0044707</title>
<path fill="none" stroke="gray" d="M223,-82.0843C223,-85.2994 223,-88.9759 223,-92.4288"/>
<polygon fill="gray" stroke="gray" points="221.95,-92.7818 223,-95.7818 224.05,-92.7819 221.95,-92.7818"/>
</g>
<!-- FTC_A0032501&#45;&gt;FTC_A0008150 -->
<g id="edge16" class="edge"><title>FTC_A0032501&#45;&gt;FTC_A0008150</title>
<path fill="none" stroke="gray" d="M331.133,-114.084C311.764,-118.189 288.846,-123.046 269.105,-127.229"/>
<polygon fill="gray" stroke="gray" points="268.429,-126.299 265.712,-127.948 268.865,-128.354 268.429,-126.299"/>
</g>
<!-- FTC_A0044707&#45;&gt;FTC_A0008150 -->
<g id="edge20" class="edge"><title>FTC_A0044707&#45;&gt;FTC_A0008150</title>
<path fill="none" stroke="gray" d="M223,-114.084C223,-117.299 223,-120.976 223,-124.429"/>
<polygon fill="gray" stroke="gray" points="221.95,-124.782 223,-127.782 224.05,-124.782 221.95,-124.782"/>
</g>
<!-- FTC_A0050817&#45;&gt;FTC_A0032501 -->
<g id="edge24" class="edge"><title>FTC_A0050817&#45;&gt;FTC_A0032501</title>
<path fill="none" stroke="gray" d="M374,-82.0843C374,-85.2994 374,-88.9759 374,-92.4288"/>
<polygon fill="gray" stroke="gray" points="372.95,-92.7818 374,-95.7818 375.05,-92.7819 372.95,-92.7818"/>
</g>
<!-- FTC_A0050817&#45;&gt;FTC_A0044707 -->
<g id="edge26" class="edge"><title>FTC_A0050817&#45;&gt;FTC_A0044707</title>
<path fill="none" stroke="gray" d="M331.133,-82.0843C311.764,-86.1891 288.846,-91.0459 269.105,-95.2294"/>
<polygon fill="gray" stroke="gray" points="268.429,-94.2992 265.712,-95.9484 268.865,-96.3536 268.429,-94.2992"/>
</g>
</g>
</svg>
