<?xml version="1.0" encoding="UTF-8" standalone="no"?>
<!DOCTYPE svg PUBLIC "-//W3C//DTD SVG 1.1//EN"
 "http://www.w3.org/Graphics/SVG/1.1/DTD/svg11.dtd">
<!-- Generated by graphviz version 2.26.3 (20100126.1600)
 -->
<!-- Title: G Pages: 1 -->
<svg viewBox="0.00 0.00 303.00 186.00" xmlns="http://www.w3.org/2000/svg" xmlns:xlink="http://www.w3.org/1999/xlink">
<g id="graph1" class="graph" transform="scale(1 1) rotate(0) translate(4 182)">
<title>G</title>
<polygon fill="white" stroke="white" points="-4,5 -4,-182 300,-182 300,5 -4,5"/>
<!-- FTC_A0007596 -->
<g id="node1" class="node"><title>FTC_A0007596</title>
<a target='_top' xlink:href="http://localhost:9000/FTC_A0007596" xlink:title="FTC_A0007596\nAnti&#45;blood coagulation agent">
<polygon fill="#00ece4" stroke="springgreen" points="219,-50 75,-50 75,-32 219,-32 219,-50"/>
<text text-anchor="middle" x="147" y="-43.6" font-family="Times Roman,serif" font-size="6.00">FTC_A0007596</text>
<text text-anchor="middle" x="147" y="-35.6" font-family="Times Roman,serif" font-size="6.00">Anti&#45;blood coagulation agent</text>
</a>
</g>
<!-- FTC_A0007599 -->
<g id="node3" class="node"><title>FTC_A0007599</title>
<a target='_top' xlink:href="http://localhost:9000/FTC_A0007599" xlink:title="FTC_A0007599\nAnti&#45;hemostasis agent">
<polygon fill="springgreen" stroke="springgreen" points="144,-82 4.26326e-14,-82 1.42109e-14,-64 144,-64 144,-82"/>
<text text-anchor="middle" x="72" y="-75.6" font-family="Times Roman,serif" font-size="6.00">FTC_A0007599</text>
<text text-anchor="middle" x="72" y="-67.6" font-family="Times Roman,serif" font-size="6.00">Anti&#45;hemostasis agent</text>
</a>
</g>
<!-- FTC_A0007596&#45;&gt;FTC_A0007599 -->
<g id="edge2" class="edge"><title>FTC_A0007596&#45;&gt;FTC_A0007599</title>
<path fill="none" stroke="gray" d="M125.709,-50.0843C116.525,-54.0028 105.735,-58.6064 96.2449,-62.6555"/>
<polygon fill="gray" stroke="gray" points="95.6919,-61.7498 93.3446,-63.893 96.516,-63.6814 95.6919,-61.7498"/>
</g>
<!-- FTC_A0050817 -->
<g id="node14" class="node"><title>FTC_A0050817</title>
<a target='_top' xlink:href="http://localhost:9000/FTC_A0050817" xlink:title="FTC_A0050817\nAnti&#45;coagulation agent">
<polygon fill="springgreen" stroke="springgreen" points="295,-82 151,-82 151,-64 295,-64 295,-82"/>
<text text-anchor="middle" x="223" y="-75.6" font-family="Times Roman,serif" font-size="6.00">FTC_A0050817</text>
<text text-anchor="middle" x="223" y="-67.6" font-family="Times Roman,serif" font-size="6.00">Anti&#45;coagulation agent</text>
</a>
</g>
<!-- FTC_A0007596&#45;&gt;FTC_A0050817 -->
<g id="edge14" class="edge"><title>FTC_A0007596&#45;&gt;FTC_A0050817</title>
<path fill="none" stroke="gray" d="M168.575,-50.0843C177.882,-54.0028 188.815,-58.6064 198.432,-62.6555"/>
<polygon fill="gray" stroke="gray" points="198.198,-63.6965 201.371,-63.893 199.013,-61.761 198.198,-63.6965"/>
</g>
<!-- FTC_A0032501 -->
<g id="node5" class="node"><title>FTC_A0032501</title>
<a target='_top' xlink:href="http://localhost:9000/FTC_A0032501" xlink:title="FTC_A0032501\nAnti&#45;multicellular organismal process agent">
<polygon fill="springgreen" stroke="springgreen" points="144,-114 4.26326e-14,-114 1.42109e-14,-96 144,-96 144,-114"/>
<text text-anchor="middle" x="72" y="-107.6" font-family="Times Roman,serif" font-size="6.00">FTC_A0032501</text>
<text text-anchor="middle" x="72" y="-99.6" font-family="Times Roman,serif" font-size="6.00">Anti&#45;multicellular organismal process agent</text>
</a>
</g>
<!-- FTC_A0007599&#45;&gt;FTC_A0032501 -->
<g id="edge4" class="edge"><title>FTC_A0007599&#45;&gt;FTC_A0032501</title>
<path fill="none" stroke="gray" d="M72,-82.0843C72,-85.2994 72,-88.9759 72,-92.4288"/>
<polygon fill="gray" stroke="gray" points="70.9501,-92.7818 72,-95.7818 73.0501,-92.7819 70.9501,-92.7818"/>
</g>
<!-- FTC_A0044707 -->
<g id="node11" class="node"><title>FTC_A0044707</title>
<a target='_top' xlink:href="http://localhost:9000/FTC_A0044707" xlink:title="FTC_A0044707\nAnti&#45;single&#45;multicellular organism process agent">
<polygon fill="springgreen" stroke="springgreen" points="295,-114 151,-114 151,-96 295,-96 295,-114"/>
<text text-anchor="middle" x="223" y="-107.6" font-family="Times Roman,serif" font-size="6.00">FTC_A0044707</text>
<text text-anchor="middle" x="223" y="-99.6" font-family="Times Roman,serif" font-size="6.00">Anti&#45;single&#45;multicellular organism process agent</text>
</a>
</g>
<!-- FTC_A0007599&#45;&gt;FTC_A0044707 -->
<g id="edge10" class="edge"><title>FTC_A0007599&#45;&gt;FTC_A0044707</title>
<path fill="none" stroke="gray" d="M114.867,-82.0843C134.236,-86.1891 157.154,-91.0459 176.895,-95.2294"/>
<polygon fill="gray" stroke="gray" points="177.135,-96.3536 180.288,-95.9484 177.571,-94.2992 177.135,-96.3536"/>
</g>
<!-- FTC_A0008150 -->
<g id="node7" class="node"><title>FTC_A0008150</title>
<a target='_top' xlink:href="http://localhost:9000/FTC_A0008150" xlink:title="FTC_A0008150\nAnti&#45;biological_process agent">
<polygon fill="springgreen" stroke="springgreen" points="219,-146 75,-146 75,-128 219,-128 219,-146"/>
<text text-anchor="middle" x="147" y="-139.6" font-family="Times Roman,serif" font-size="6.00">FTC_A0008150</text>
<text text-anchor="middle" x="147" y="-131.6" font-family="Times Roman,serif" font-size="6.00">Anti&#45;biological_process agent</text>
</a>
</g>
<!-- FTC_A0032501&#45;&gt;FTC_A0008150 -->
<g id="edge6" class="edge"><title>FTC_A0032501&#45;&gt;FTC_A0008150</title>
<path fill="none" stroke="gray" d="M93.2914,-114.084C102.475,-118.003 113.265,-122.606 122.755,-126.656"/>
<polygon fill="gray" stroke="gray" points="122.484,-127.681 125.655,-127.893 123.308,-125.75 122.484,-127.681"/>
</g>
<!-- FTC_C1 -->
<g id="node9" class="node"><title>FTC_C1</title>
<a target='_top' xlink:href="http://localhost:9000/FTC_C1" xlink:title="FTC_C1\ntherapeutic agent">
<polygon fill="springgreen" stroke="springgreen" points="219,-178 75,-178 75,-160 219,-160 219,-178"/>
<text text-anchor="middle" x="147" y="-171.6" font-family="Times Roman,serif" font-size="6.00">FTC_C1</text>
<text text-anchor="middle" x="147" y="-163.6" font-family="Times Roman,serif" font-size="6.00">therapeutic agent</text>
</a>
</g>
<!-- FTC_A0008150&#45;&gt;FTC_C1 -->
<g id="edge8" class="edge"><title>FTC_A0008150&#45;&gt;FTC_C1</title>
<path fill="none" stroke="gray" d="M147,-146.084C147,-149.299 147,-152.976 147,-156.429"/>
<polygon fill="gray" stroke="gray" points="145.95,-156.782 147,-159.782 148.05,-156.782 145.95,-156.782"/>
</g>
<!-- FTC_A0044707&#45;&gt;FTC_A0008150 -->
<g id="edge12" class="edge"><title>FTC_A0044707&#45;&gt;FTC_A0008150</title>
<path fill="none" stroke="gray" d="M201.425,-114.084C192.118,-118.003 181.185,-122.606 171.568,-126.656"/>
<polygon fill="gray" stroke="gray" points="170.987,-125.761 168.629,-127.893 171.802,-127.696 170.987,-125.761"/>
</g>
<!-- FTC_A0050817&#45;&gt;FTC_A0032501 -->
<g id="edge16" class="edge"><title>FTC_A0050817&#45;&gt;FTC_A0032501</title>
<path fill="none" stroke="gray" d="M180.133,-82.0843C160.764,-86.1891 137.846,-91.0459 118.105,-95.2294"/>
<polygon fill="gray" stroke="gray" points="117.429,-94.2992 114.712,-95.9484 117.865,-96.3536 117.429,-94.2992"/>
</g>
<!-- FTC_A0050817&#45;&gt;FTC_A0044707 -->
<g id="edge18" class="edge"><title>FTC_A0050817&#45;&gt;FTC_A0044707</title>
<path fill="none" stroke="gray" d="M223,-82.0843C223,-85.2994 223,-88.9759 223,-92.4288"/>
<polygon fill="gray" stroke="gray" points="221.95,-92.7818 223,-95.7818 224.05,-92.7819 221.95,-92.7818"/>
</g>
<!-- FTC_A0030168 -->
<g id="node17" class="node"><title>FTC_A0030168</title>
<a target='_top' xlink:href="http://localhost:9000/FTC_A0030168" xlink:title="FTC_A0030168\nAnti&#45;platelet activation agent">
<polygon fill="springgreen" stroke="springgreen" points="144,-18 4.26326e-14,-18 1.42109e-14,-5.32907e-15 144,-0 144,-18"/>
<text text-anchor="middle" x="72" y="-11.6" font-family="Times Roman,serif" font-size="6.00">FTC_A0030168</text>
<text text-anchor="middle" x="72" y="-3.6" font-family="Times Roman,serif" font-size="6.00">Anti&#45;platelet activation agent</text>
</a>
</g>
<!-- FTC_A0030168&#45;&gt;FTC_A0007596 -->
<g id="edge20" class="edge"><title>FTC_A0030168&#45;&gt;FTC_A0007596</title>
<path fill="none" stroke="gray" d="M93.2914,-18.0843C102.475,-22.0028 113.265,-26.6064 122.755,-30.6555"/>
<polygon fill="gray" stroke="gray" points="122.484,-31.6814 125.655,-31.893 123.308,-29.7498 122.484,-31.6814"/>
</g>
<!-- FTC_P0042730 -->
<g id="node19" class="node"><title>FTC_P0042730</title>
<a target='_top' xlink:href="http://localhost:9000/FTC_P0042730" xlink:title="FTC_P0042730\nPro&#45;fibrinolysis agent">
<polygon fill="springgreen" stroke="springgreen" points="295,-18 151,-18 151,-5.32907e-15 295,-0 295,-18"/>
<text text-anchor="middle" x="223" y="-11.6" font-family="Times Roman,serif" font-size="6.00">FTC_P0042730</text>
<text text-anchor="middle" x="223" y="-3.6" font-family="Times Roman,serif" font-size="6.00">Pro&#45;fibrinolysis agent</text>
</a>
</g>
<!-- FTC_P0042730&#45;&gt;FTC_A0007596 -->
<g id="edge22" class="edge"><title>FTC_P0042730&#45;&gt;FTC_A0007596</title>
<path fill="none" stroke="gray" d="M201.425,-18.0843C192.118,-22.0028 181.185,-26.6064 171.568,-30.6555"/>
<polygon fill="gray" stroke="gray" points="170.987,-29.761 168.629,-31.893 171.802,-31.6965 170.987,-29.761"/>
</g>
</g>
</svg>
