<?xml version="1.0" encoding="UTF-8" standalone="no"?>
<!DOCTYPE svg PUBLIC "-//W3C//DTD SVG 1.1//EN"
 "http://www.w3.org/Graphics/SVG/1.1/DTD/svg11.dtd">
<!-- Generated by graphviz version 2.26.3 (20100126.1600)
 -->
<!-- Title: G Pages: 1 -->
<svg viewBox="0.00 0.00 904.00 452.00" xmlns="http://www.w3.org/2000/svg" xmlns:xlink="http://www.w3.org/1999/xlink">
<g id="graph1" class="graph" transform="scale(1 1) rotate(0) translate(4 448)">
<title>G</title>
<polygon fill="white" stroke="white" points="-4,5 -4,-448 901,-448 901,5 -4,5"/>
<!-- FTC_A0030168 -->
<g id="node1" class="node"><title>FTC_A0030168</title>
<a target='_top' xlink:href="http://localhost:9000/FTC_A0030168" xlink:title="FTC_A0030168\nAnti&#45;platelet activation agent">
<polygon fill="#ee8262" stroke="#ee8262" points="408,-44 188,-44 188,-1.06581e-14 408,-0 408,-44"/>
<text text-anchor="middle" x="298" y="-27.4" font-family="Times Roman,serif" font-size="14.00">FTC_A0030168</text>
<text text-anchor="middle" x="298" y="-9.4" font-family="Times Roman,serif" font-size="14.00">Anti&#45;platelet activation agent</text>
</a>
</g>
<!-- FTC_A0001775 -->
<g id="node3" class="node"><title>FTC_A0001775</title>
<a target='_top' xlink:href="http://localhost:9000/FTC_A0001775" xlink:title="FTC_A0001775\nAnti&#45;cell activation agent">
<polygon fill="#ee8262" stroke="#ee8262" points="248,-124 58,-124 58,-80 248,-80 248,-124"/>
<text text-anchor="middle" x="153" y="-107.4" font-family="Times Roman,serif" font-size="14.00">FTC_A0001775</text>
<text text-anchor="middle" x="153" y="-89.4" font-family="Times Roman,serif" font-size="14.00">Anti&#45;cell activation agent</text>
</a>
</g>
<!-- FTC_A0030168&#45;&gt;FTC_A0001775 -->
<g id="edge2" class="edge"><title>FTC_A0030168&#45;&gt;FTC_A0001775</title>
<path fill="none" stroke="black" d="M257.994,-44.0721C240.561,-53.6905 219.967,-65.0526 201.657,-75.1549"/>
<polygon fill="black" stroke="black" points="199.94,-72.1046 192.875,-79.9999 203.322,-78.2336 199.94,-72.1046"/>
</g>
<!-- FTC_A0007596 -->
<g id="node11" class="node"><title>FTC_A0007596</title>
<a target='_top' xlink:href="http://localhost:9000/FTC_A0007596" xlink:title="FTC_A0007596\nAnti&#45;blood coagulation agent">
<polygon fill="#ee8262" stroke="#ee8262" points="498,-124 284,-124 284,-80 498,-80 498,-124"/>
<text text-anchor="middle" x="391" y="-107.4" font-family="Times Roman,serif" font-size="14.00">FTC_A0007596</text>
<text text-anchor="middle" x="391" y="-89.4" font-family="Times Roman,serif" font-size="14.00">Anti&#45;blood coagulation agent</text>
</a>
</g>
<!-- FTC_A0030168&#45;&gt;FTC_A0007596 -->
<g id="edge10" class="edge"><title>FTC_A0030168&#45;&gt;FTC_A0007596</title>
<path fill="none" stroke="black" d="M323.906,-44.2845C334.285,-53.2132 346.381,-63.6178 357.421,-73.1145"/>
<polygon fill="black" stroke="black" points="355.37,-75.9671 365.233,-79.835 359.935,-70.6603 355.37,-75.9671"/>
</g>
<!-- FTC_A0009987 -->
<g id="node5" class="node"><title>FTC_A0009987</title>
<a target='_top' xlink:href="http://localhost:9000/FTC_A0009987" xlink:title="FTC_A0009987\nAnti&#45;cellular process agent">
<polygon fill="#ee8262" stroke="#ee8262" points="200,-284 5.68434e-14,-284 1.42109e-14,-240 200,-240 200,-284"/>
<text text-anchor="middle" x="100" y="-267.4" font-family="Times Roman,serif" font-size="14.00">FTC_A0009987</text>
<text text-anchor="middle" x="100" y="-249.4" font-family="Times Roman,serif" font-size="14.00">Anti&#45;cellular process agent</text>
</a>
</g>
<!-- FTC_A0001775&#45;&gt;FTC_A0009987 -->
<g id="edge4" class="edge"><title>FTC_A0001775&#45;&gt;FTC_A0009987</title>
<path fill="none" stroke="black" d="M145.631,-124.247C136.494,-151.831 120.86,-199.027 110.478,-230.368"/>
<polygon fill="black" stroke="black" points="107.129,-229.348 107.307,-239.942 113.774,-231.549 107.129,-229.348"/>
</g>
<!-- FTC_A0008150 -->
<g id="node7" class="node"><title>FTC_A0008150</title>
<a target='_top' xlink:href="http://localhost:9000/FTC_A0008150" xlink:title="FTC_A0008150\nAnti&#45;biological_process agent">
<polygon fill="#ee8262" stroke="#ee8262" points="499,-364 283,-364 283,-320 499,-320 499,-364"/>
<text text-anchor="middle" x="391" y="-347.4" font-family="Times Roman,serif" font-size="14.00">FTC_A0008150</text>
<text text-anchor="middle" x="391" y="-329.4" font-family="Times Roman,serif" font-size="14.00">Anti&#45;biological_process agent</text>
</a>
</g>
<!-- FTC_A0009987&#45;&gt;FTC_A0008150 -->
<g id="edge6" class="edge"><title>FTC_A0009987&#45;&gt;FTC_A0008150</title>
<path fill="none" stroke="black" d="M180.287,-284.072C217.819,-294.39 262.649,-306.714 301.292,-317.338"/>
<polygon fill="black" stroke="black" points="300.405,-320.724 310.975,-320 302.26,-313.974 300.405,-320.724"/>
</g>
<!-- FTC_C1 -->
<g id="node9" class="node"><title>FTC_C1</title>
<a target='_top' xlink:href="http://localhost:9000/FTC_C1" xlink:title="FTC_C1\ntherapeutic agent">
<polygon fill="#ee8262" stroke="#ee8262" points="461,-444 321,-444 321,-400 461,-400 461,-444"/>
<text text-anchor="middle" x="391" y="-427.4" font-family="Times Roman,serif" font-size="14.00">FTC_C1</text>
<text text-anchor="middle" x="391" y="-409.4" font-family="Times Roman,serif" font-size="14.00">therapeutic agent</text>
</a>
</g>
<!-- FTC_A0008150&#45;&gt;FTC_C1 -->
<g id="edge8" class="edge"><title>FTC_A0008150&#45;&gt;FTC_C1</title>
<path fill="none" stroke="black" d="M391,-364.284C391,-372.173 391,-381.213 391,-389.762"/>
<polygon fill="black" stroke="black" points="387.5,-389.835 391,-399.835 394.5,-389.835 387.5,-389.835"/>
</g>
<!-- FTC_A0007599 -->
<g id="node13" class="node"><title>FTC_A0007599</title>
<a target='_top' xlink:href="http://localhost:9000/FTC_A0007599" xlink:title="FTC_A0007599\nAnti&#45;hemostasis agent">
<polygon fill="#ee8262" stroke="#ee8262" points="476,-204 306,-204 306,-160 476,-160 476,-204"/>
<text text-anchor="middle" x="391" y="-187.4" font-family="Times Roman,serif" font-size="14.00">FTC_A0007599</text>
<text text-anchor="middle" x="391" y="-169.4" font-family="Times Roman,serif" font-size="14.00">Anti&#45;hemostasis agent</text>
</a>
</g>
<!-- FTC_A0007596&#45;&gt;FTC_A0007599 -->
<g id="edge12" class="edge"><title>FTC_A0007596&#45;&gt;FTC_A0007599</title>
<path fill="none" stroke="black" d="M391,-124.284C391,-132.173 391,-141.213 391,-149.762"/>
<polygon fill="black" stroke="black" points="387.5,-149.835 391,-159.835 394.5,-149.835 387.5,-149.835"/>
</g>
<!-- FTC_A0050817 -->
<g id="node21" class="node"><title>FTC_A0050817</title>
<a target='_top' xlink:href="http://localhost:9000/FTC_A0050817" xlink:title="FTC_A0050817\nAnti&#45;coagulation agent">
<polygon fill="#ee8262" stroke="#ee8262" points="668,-204 494,-204 494,-160 668,-160 668,-204"/>
<text text-anchor="middle" x="581" y="-187.4" font-family="Times Roman,serif" font-size="14.00">FTC_A0050817</text>
<text text-anchor="middle" x="581" y="-169.4" font-family="Times Roman,serif" font-size="14.00">Anti&#45;coagulation agent</text>
</a>
</g>
<!-- FTC_A0007596&#45;&gt;FTC_A0050817 -->
<g id="edge22" class="edge"><title>FTC_A0007596&#45;&gt;FTC_A0050817</title>
<path fill="none" stroke="black" d="M443.421,-124.072C466.992,-133.997 494.971,-145.777 519.524,-156.115"/>
<polygon fill="black" stroke="black" points="518.175,-159.345 528.75,-160 520.892,-152.894 518.175,-159.345"/>
</g>
<!-- FTC_A0032501 -->
<g id="node15" class="node"><title>FTC_A0032501</title>
<a target='_top' xlink:href="http://localhost:9000/FTC_A0032501" xlink:title="FTC_A0032501\nAnti&#45;multicellular organismal process agent">
<polygon fill="#ee8262" stroke="#ee8262" points="896,-284 582,-284 582,-240 896,-240 896,-284"/>
<text text-anchor="middle" x="739" y="-267.4" font-family="Times Roman,serif" font-size="14.00">FTC_A0032501</text>
<text text-anchor="middle" x="739" y="-249.4" font-family="Times Roman,serif" font-size="14.00">Anti&#45;multicellular organismal process agent</text>
</a>
</g>
<!-- FTC_A0007599&#45;&gt;FTC_A0032501 -->
<g id="edge14" class="edge"><title>FTC_A0007599&#45;&gt;FTC_A0032501</title>
<path fill="none" stroke="black" d="M476.05,-201.927C479.07,-202.628 482.061,-203.32 485,-204 533.242,-215.153 586.671,-227.373 632.029,-237.708"/>
<polygon fill="black" stroke="black" points="631.35,-241.143 641.878,-239.952 632.905,-234.318 631.35,-241.143"/>
</g>
<!-- FTC_A0044707 -->
<g id="node18" class="node"><title>FTC_A0044707</title>
<a target='_top' xlink:href="http://localhost:9000/FTC_A0044707" xlink:title="FTC_A0044707\nAnti&#45;single&#45;multicellular organism process agent">
<polygon fill="#ee8262" stroke="#ee8262" points="564,-284 218,-284 218,-240 564,-240 564,-284"/>
<text text-anchor="middle" x="391" y="-267.4" font-family="Times Roman,serif" font-size="14.00">FTC_A0044707</text>
<text text-anchor="middle" x="391" y="-249.4" font-family="Times Roman,serif" font-size="14.00">Anti&#45;single&#45;multicellular organism process agent</text>
</a>
</g>
<!-- FTC_A0007599&#45;&gt;FTC_A0044707 -->
<g id="edge18" class="edge"><title>FTC_A0007599&#45;&gt;FTC_A0044707</title>
<path fill="none" stroke="black" d="M391,-204.284C391,-212.173 391,-221.213 391,-229.762"/>
<polygon fill="black" stroke="black" points="387.5,-229.835 391,-239.835 394.5,-229.835 387.5,-229.835"/>
</g>
<!-- FTC_A0032501&#45;&gt;FTC_A0008150 -->
<g id="edge16" class="edge"><title>FTC_A0032501&#45;&gt;FTC_A0008150</title>
<path fill="none" stroke="black" d="M642.986,-284.072C597.533,-294.521 543.128,-307.028 496.521,-317.742"/>
<polygon fill="black" stroke="black" points="495.662,-314.348 486.7,-320 497.23,-321.17 495.662,-314.348"/>
</g>
<!-- FTC_A0044707&#45;&gt;FTC_A0008150 -->
<g id="edge20" class="edge"><title>FTC_A0044707&#45;&gt;FTC_A0008150</title>
<path fill="none" stroke="black" d="M391,-284.284C391,-292.173 391,-301.213 391,-309.762"/>
<polygon fill="black" stroke="black" points="387.5,-309.835 391,-319.835 394.5,-309.835 387.5,-309.835"/>
</g>
<!-- FTC_A0050817&#45;&gt;FTC_A0032501 -->
<g id="edge24" class="edge"><title>FTC_A0050817&#45;&gt;FTC_A0032501</title>
<path fill="none" stroke="black" d="M624.592,-204.072C643.761,-213.778 666.437,-225.259 686.525,-235.43"/>
<polygon fill="black" stroke="black" points="685.047,-238.605 695.55,-240 688.209,-232.36 685.047,-238.605"/>
</g>
<!-- FTC_A0050817&#45;&gt;FTC_A0044707 -->
<g id="edge26" class="edge"><title>FTC_A0050817&#45;&gt;FTC_A0044707</title>
<path fill="none" stroke="black" d="M528.579,-204.072C505.008,-213.997 477.029,-225.777 452.476,-236.115"/>
<polygon fill="black" stroke="black" points="451.108,-232.894 443.25,-240 453.825,-239.345 451.108,-232.894"/>
</g>
</g>
</svg>
