<?xml version="1.0" encoding="UTF-8" standalone="no"?>
<!DOCTYPE svg PUBLIC "-//W3C//DTD SVG 1.1//EN"
 "http://www.w3.org/Graphics/SVG/1.1/DTD/svg11.dtd">
<!-- Generated by graphviz version 2.26.3 (20100126.1600)
 -->
<!-- Title: G Pages: 1 -->
<svg viewBox="0.00 0.00 251.00 294.00" xmlns="http://www.w3.org/2000/svg" xmlns:xlink="http://www.w3.org/1999/xlink">
<g id="graph1" class="graph" transform="scale(1 1) rotate(0) translate(4 290)">
<title>G</title>
<polygon fill="white" stroke="white" points="-4,5 -4,-290 248,-290 248,5 -4,5"/>
<!-- FTC_P0042730 -->
<g id="node1" class="node"><title>FTC_P0042730</title>
<a target='_top' xlink:href="http://localhost:9000/FTC_P0042730" xlink:title="FTC_P0042730\nPro&#45;fibrinolysis agent\n">
<polygon fill="#00ece4" stroke="springgreen" points="215,-36 125,-36 125,-1.06581e-14 215,-0 215,-36"/>
<text text-anchor="middle" x="170" y="-20.6" font-family="Times Roman,serif" font-size="6.00">FTC_P0042730</text>
<text text-anchor="middle" x="170" y="-12.6" font-family="Times Roman,serif" font-size="6.00">Pro&#45;fibrinolysis agent</text>
</a>
</g>
<!-- FTC_A0007596 -->
<g id="node3" class="node"><title>FTC_A0007596</title>
<a target='_top' xlink:href="http://localhost:9000/FTC_A0007596" xlink:title="FTC_A0007596\nAnti&#45;blood coagulation\nagent ">
<polygon fill="springgreen" stroke="springgreen" points="187,-86 97,-86 97,-50 187,-50 187,-86"/>
<text text-anchor="middle" x="142" y="-74.6" font-family="Times Roman,serif" font-size="6.00">FTC_A0007596</text>
<text text-anchor="middle" x="142" y="-66.6" font-family="Times Roman,serif" font-size="6.00">Anti&#45;blood coagulation</text>
<text text-anchor="middle" x="142" y="-58.6" font-family="Times Roman,serif" font-size="6.00">agent </text>
</a>
</g>
<!-- FTC_P0042730&#45;&gt;FTC_A0007596 -->
<g id="edge2" class="edge"><title>FTC_P0042730&#45;&gt;FTC_A0007596</title>
<path fill="none" stroke="gray" d="M159.891,-36.0511C157.933,-39.5477 155.865,-43.2413 153.857,-46.8272"/>
<polygon fill="gray" stroke="gray" points="152.738,-46.6768 152.188,-49.8074 154.57,-47.7029 152.738,-46.6768"/>
</g>
<!-- FTC_P0008150 -->
<g id="node20" class="node"><title>FTC_P0008150</title>
<a target='_top' xlink:href="http://localhost:9000/FTC_P0008150" xlink:title="FTC_P0008150\nPro&#45;biological_process\nagent ">
<polygon fill="springgreen" stroke="springgreen" points="243,-236 153,-236 153,-200 243,-200 243,-236"/>
<text text-anchor="middle" x="198" y="-224.6" font-family="Times Roman,serif" font-size="6.00">FTC_P0008150</text>
<text text-anchor="middle" x="198" y="-216.6" font-family="Times Roman,serif" font-size="6.00">Pro&#45;biological_process</text>
<text text-anchor="middle" x="198" y="-208.6" font-family="Times Roman,serif" font-size="6.00">agent </text>
</a>
</g>
<!-- FTC_P0042730&#45;&gt;FTC_P0008150 -->
<g id="edge22" class="edge"><title>FTC_P0042730&#45;&gt;FTC_P0008150</title>
<path fill="none" stroke="gray" d="M183.554,-36.1655C186.147,-40.4971 188.514,-45.2479 190,-50 205.873,-100.756 203.21,-164.323 200.351,-196.784"/>
<polygon fill="gray" stroke="gray" points="199.301,-196.744 200.075,-199.827 201.392,-196.934 199.301,-196.744"/>
</g>
<!-- FTC_A0007599 -->
<g id="node5" class="node"><title>FTC_A0007599</title>
<a target='_top' xlink:href="http://localhost:9000/FTC_A0007599" xlink:title="FTC_A0007599\nAnti&#45;hemostasis agent\n">
<polygon fill="springgreen" stroke="springgreen" points="90,-136 2.84217e-14,-136 7.10543e-15,-100 90,-100 90,-136"/>
<text text-anchor="middle" x="45" y="-120.6" font-family="Times Roman,serif" font-size="6.00">FTC_A0007599</text>
<text text-anchor="middle" x="45" y="-112.6" font-family="Times Roman,serif" font-size="6.00">Anti&#45;hemostasis agent</text>
</a>
</g>
<!-- FTC_A0007596&#45;&gt;FTC_A0007599 -->
<g id="edge4" class="edge"><title>FTC_A0007596&#45;&gt;FTC_A0007599</title>
<path fill="none" stroke="gray" d="M106.981,-86.0511C99.1511,-90.087 90.8123,-94.3854 82.8731,-98.4778"/>
<polygon fill="gray" stroke="gray" points="82.1533,-97.6675 79.9678,-99.9753 83.1155,-99.5341 82.1533,-97.6675"/>
</g>
<!-- FTC_A0050817 -->
<g id="node16" class="node"><title>FTC_A0050817</title>
<a target='_top' xlink:href="http://localhost:9000/FTC_A0050817" xlink:title="FTC_A0050817\nAnti&#45;coagulation agent\n">
<polygon fill="springgreen" stroke="springgreen" points="187,-136 97,-136 97,-100 187,-100 187,-136"/>
<text text-anchor="middle" x="142" y="-120.6" font-family="Times Roman,serif" font-size="6.00">FTC_A0050817</text>
<text text-anchor="middle" x="142" y="-112.6" font-family="Times Roman,serif" font-size="6.00">Anti&#45;coagulation agent</text>
</a>
</g>
<!-- FTC_A0007596&#45;&gt;FTC_A0050817 -->
<g id="edge16" class="edge"><title>FTC_A0007596&#45;&gt;FTC_A0050817</title>
<path fill="none" stroke="gray" d="M142,-86.0511C142,-89.4078 142,-92.9461 142,-96.3964"/>
<polygon fill="gray" stroke="gray" points="140.95,-96.8074 142,-99.8074 143.05,-96.8074 140.95,-96.8074"/>
</g>
<!-- FTC_A0032501 -->
<g id="node7" class="node"><title>FTC_A0032501</title>
<a target='_top' xlink:href="http://localhost:9000/FTC_A0032501" xlink:title="FTC_A0032501\nAnti&#45;multicellular\norganismal process\nagent ">
<polygon fill="springgreen" stroke="springgreen" points="90,-186 2.84217e-14,-186 7.10543e-15,-150 90,-150 90,-186"/>
<text text-anchor="middle" x="45" y="-178.6" font-family="Times Roman,serif" font-size="6.00">FTC_A0032501</text>
<text text-anchor="middle" x="45" y="-170.6" font-family="Times Roman,serif" font-size="6.00">Anti&#45;multicellular</text>
<text text-anchor="middle" x="45" y="-162.6" font-family="Times Roman,serif" font-size="6.00">organismal process</text>
<text text-anchor="middle" x="45" y="-154.6" font-family="Times Roman,serif" font-size="6.00">agent </text>
</a>
</g>
<!-- FTC_A0007599&#45;&gt;FTC_A0032501 -->
<g id="edge6" class="edge"><title>FTC_A0007599&#45;&gt;FTC_A0032501</title>
<path fill="none" stroke="gray" d="M45,-136.051C45,-139.408 45,-142.946 45,-146.396"/>
<polygon fill="gray" stroke="gray" points="43.9501,-146.807 45,-149.807 46.0501,-146.807 43.9501,-146.807"/>
</g>
<!-- FTC_A0044707 -->
<g id="node13" class="node"><title>FTC_A0044707</title>
<a target='_top' xlink:href="http://localhost:9000/FTC_A0044707" xlink:title="FTC_A0044707\nAnti&#45;single&#45;multicellular\norganism process agent\n">
<polygon fill="springgreen" stroke="springgreen" points="187,-186 97,-186 97,-150 187,-150 187,-186"/>
<text text-anchor="middle" x="142" y="-174.6" font-family="Times Roman,serif" font-size="6.00">FTC_A0044707</text>
<text text-anchor="middle" x="142" y="-166.6" font-family="Times Roman,serif" font-size="6.00">Anti&#45;single&#45;multicellular</text>
<text text-anchor="middle" x="142" y="-158.6" font-family="Times Roman,serif" font-size="6.00">organism process agent</text>
</a>
</g>
<!-- FTC_A0007599&#45;&gt;FTC_A0044707 -->
<g id="edge12" class="edge"><title>FTC_A0007599&#45;&gt;FTC_A0044707</title>
<path fill="none" stroke="gray" d="M80.0192,-136.051C87.8489,-140.087 96.1877,-144.385 104.127,-148.478"/>
<polygon fill="gray" stroke="gray" points="103.884,-149.534 107.032,-149.975 104.847,-147.667 103.884,-149.534"/>
</g>
<!-- FTC_A0008150 -->
<g id="node9" class="node"><title>FTC_A0008150</title>
<a target='_top' xlink:href="http://localhost:9000/FTC_A0008150" xlink:title="FTC_A0008150\nAnti&#45;biological_process\nagent ">
<polygon fill="springgreen" stroke="springgreen" points="146,-236 56,-236 56,-200 146,-200 146,-236"/>
<text text-anchor="middle" x="101" y="-224.6" font-family="Times Roman,serif" font-size="6.00">FTC_A0008150</text>
<text text-anchor="middle" x="101" y="-216.6" font-family="Times Roman,serif" font-size="6.00">Anti&#45;biological_process</text>
<text text-anchor="middle" x="101" y="-208.6" font-family="Times Roman,serif" font-size="6.00">agent </text>
</a>
</g>
<!-- FTC_A0032501&#45;&gt;FTC_A0008150 -->
<g id="edge8" class="edge"><title>FTC_A0032501&#45;&gt;FTC_A0008150</title>
<path fill="none" stroke="gray" d="M65.2173,-186.051C69.4467,-189.827 73.9335,-193.833 78.2479,-197.686"/>
<polygon fill="gray" stroke="gray" points="77.6871,-198.593 80.6243,-199.807 79.0858,-197.026 77.6871,-198.593"/>
</g>
<!-- FTC_C1 -->
<g id="node11" class="node"><title>FTC_C1</title>
<a target='_top' xlink:href="http://localhost:9000/FTC_C1" xlink:title="FTC_C1\ntherapeutic agent ">
<polygon fill="springgreen" stroke="springgreen" points="194,-286 104,-286 104,-250 194,-250 194,-286"/>
<text text-anchor="middle" x="149" y="-270.6" font-family="Times Roman,serif" font-size="6.00">FTC_C1</text>
<text text-anchor="middle" x="149" y="-262.6" font-family="Times Roman,serif" font-size="6.00">therapeutic agent </text>
</a>
</g>
<!-- FTC_A0008150&#45;&gt;FTC_C1 -->
<g id="edge10" class="edge"><title>FTC_A0008150&#45;&gt;FTC_C1</title>
<path fill="none" stroke="gray" d="M118.329,-236.051C121.82,-239.688 125.516,-243.537 129.087,-247.257"/>
<polygon fill="gray" stroke="gray" points="128.7,-248.37 131.535,-249.807 130.215,-246.916 128.7,-248.37"/>
</g>
<!-- FTC_A0044707&#45;&gt;FTC_A0008150 -->
<g id="edge14" class="edge"><title>FTC_A0044707&#45;&gt;FTC_A0008150</title>
<path fill="none" stroke="gray" d="M127.198,-186.051C124.216,-189.688 121.06,-193.537 118.009,-197.257"/>
<polygon fill="gray" stroke="gray" points="117.008,-196.822 115.918,-199.807 118.632,-198.153 117.008,-196.822"/>
</g>
<!-- FTC_A0050817&#45;&gt;FTC_A0032501 -->
<g id="edge18" class="edge"><title>FTC_A0050817&#45;&gt;FTC_A0032501</title>
<path fill="none" stroke="gray" d="M106.981,-136.051C99.1511,-140.087 90.8123,-144.385 82.8731,-148.478"/>
<polygon fill="gray" stroke="gray" points="82.1533,-147.667 79.9678,-149.975 83.1155,-149.534 82.1533,-147.667"/>
</g>
<!-- FTC_A0050817&#45;&gt;FTC_A0044707 -->
<g id="edge20" class="edge"><title>FTC_A0050817&#45;&gt;FTC_A0044707</title>
<path fill="none" stroke="gray" d="M142,-136.051C142,-139.408 142,-142.946 142,-146.396"/>
<polygon fill="gray" stroke="gray" points="140.95,-146.807 142,-149.807 143.05,-146.807 140.95,-146.807"/>
</g>
<!-- FTC_P0008150&#45;&gt;FTC_C1 -->
<g id="edge24" class="edge"><title>FTC_P0008150&#45;&gt;FTC_C1</title>
<path fill="none" stroke="gray" d="M180.31,-236.051C176.746,-239.688 172.974,-243.537 169.328,-247.257"/>
<polygon fill="gray" stroke="gray" points="168.179,-246.93 166.829,-249.807 169.678,-248.4 168.179,-246.93"/>
</g>
</g>
</svg>
