<?xml version="1.0" encoding="UTF-8" standalone="no"?>
<!DOCTYPE svg PUBLIC "-//W3C//DTD SVG 1.1//EN"
 "http://www.w3.org/Graphics/SVG/1.1/DTD/svg11.dtd">
<!-- Generated by graphviz version 2.26.3 (20100126.1600)
 -->
<!-- Title: G Pages: 1 -->
<svg width="819pt" height="452pt"
 viewBox="0.00 0.00 819.00 452.00" xmlns="http://www.w3.org/2000/svg" xmlns:xlink="http://www.w3.org/1999/xlink">
<g id="graph1" class="graph" transform="scale(1 1) rotate(0) translate(4 448)">
<title>G</title>
<polygon fill="white" stroke="white" points="-4,5 -4,-448 816,-448 816,5 -4,5"/>
<!-- FTC_P0042730 -->
<g id="node1" class="node"><title>FTC_P0042730</title>
<a xlink:href="http://localhost:9000/FTC_P0042730" xlink:title="FTC_P0042730\nPro&#45;fibrinolysis agent">
<polygon fill="none" stroke="black" points="686,-44 524,-44 524,-1.06581e-14 686,-0 686,-44"/>
<text text-anchor="middle" x="605" y="-27.4" font-family="Times Roman,serif" font-size="14.00">FTC_P0042730</text>
<text text-anchor="middle" x="605" y="-9.4" font-family="Times Roman,serif" font-size="14.00">Pro&#45;fibrinolysis agent</text>
</a>
</g>
<!-- FTC_A0007596 -->
<g id="node3" class="node"><title>FTC_A0007596</title>
<a xlink:href="http://localhost:9000/FTC_A0007596" xlink:title="FTC_A0007596\nAnti&#45;blood coagulation agent">
<polygon fill="none" stroke="black" points="612,-124 398,-124 398,-80 612,-80 612,-124"/>
<text text-anchor="middle" x="505" y="-107.4" font-family="Times Roman,serif" font-size="14.00">FTC_A0007596</text>
<text text-anchor="middle" x="505" y="-89.4" font-family="Times Roman,serif" font-size="14.00">Anti&#45;blood coagulation agent</text>
</a>
</g>
<!-- FTC_P0042730&#45;&gt;FTC_A0007596 -->
<g id="edge2" class="edge"><title>FTC_P0042730&#45;&gt;FTC_A0007596</title>
<path fill="none" stroke="black" d="M577.41,-44.0721C566.043,-53.1658 552.727,-63.8183 540.636,-73.4911"/>
<polygon fill="black" stroke="black" points="538.122,-71.0199 532.5,-79.9999 542.495,-76.486 538.122,-71.0199"/>
</g>
<!-- FTC_P0008150 -->
<g id="node20" class="node"><title>FTC_P0008150</title>
<a xlink:href="http://localhost:9000/FTC_P0008150" xlink:title="FTC_P0008150\nPro&#45;biological_process agent">
<polygon fill="none" stroke="black" points="811,-364 601,-364 601,-320 811,-320 811,-364"/>
<text text-anchor="middle" x="706" y="-347.4" font-family="Times Roman,serif" font-size="14.00">FTC_P0008150</text>
<text text-anchor="middle" x="706" y="-329.4" font-family="Times Roman,serif" font-size="14.00">Pro&#45;biological_process agent</text>
</a>
</g>
<!-- FTC_P0042730&#45;&gt;FTC_P0008150 -->
<g id="edge22" class="edge"><title>FTC_P0042730&#45;&gt;FTC_P0008150</title>
<path fill="none" stroke="black" d="M614.826,-44.1623C631.744,-83.0872 666.525,-166.58 687,-240 693.428,-263.05 698.301,-289.644 701.502,-309.897"/>
<polygon fill="black" stroke="black" points="698.054,-310.501 703.023,-319.858 704.973,-309.444 698.054,-310.501"/>
</g>
<!-- FTC_A0007599 -->
<g id="node5" class="node"><title>FTC_A0007599</title>
<a xlink:href="http://localhost:9000/FTC_A0007599" xlink:title="FTC_A0007599\nAnti&#45;hemostasis agent">
<polygon fill="none" stroke="black" points="400,-204 230,-204 230,-160 400,-160 400,-204"/>
<text text-anchor="middle" x="315" y="-187.4" font-family="Times Roman,serif" font-size="14.00">FTC_A0007599</text>
<text text-anchor="middle" x="315" y="-169.4" font-family="Times Roman,serif" font-size="14.00">Anti&#45;hemostasis agent</text>
</a>
</g>
<!-- FTC_A0007596&#45;&gt;FTC_A0007599 -->
<g id="edge4" class="edge"><title>FTC_A0007596&#45;&gt;FTC_A0007599</title>
<path fill="none" stroke="black" d="M452.579,-124.072C429.008,-133.997 401.029,-145.777 376.476,-156.115"/>
<polygon fill="black" stroke="black" points="375.108,-152.894 367.25,-160 377.825,-159.345 375.108,-152.894"/>
</g>
<!-- FTC_A0050817 -->
<g id="node16" class="node"><title>FTC_A0050817</title>
<a xlink:href="http://localhost:9000/FTC_A0050817" xlink:title="FTC_A0050817\nAnti&#45;coagulation agent">
<polygon fill="none" stroke="black" points="592,-204 418,-204 418,-160 592,-160 592,-204"/>
<text text-anchor="middle" x="505" y="-187.4" font-family="Times Roman,serif" font-size="14.00">FTC_A0050817</text>
<text text-anchor="middle" x="505" y="-169.4" font-family="Times Roman,serif" font-size="14.00">Anti&#45;coagulation agent</text>
</a>
</g>
<!-- FTC_A0007596&#45;&gt;FTC_A0050817 -->
<g id="edge16" class="edge"><title>FTC_A0007596&#45;&gt;FTC_A0050817</title>
<path fill="none" stroke="black" d="M505,-124.284C505,-132.173 505,-141.213 505,-149.762"/>
<polygon fill="black" stroke="black" points="501.5,-149.835 505,-159.835 508.5,-149.835 501.5,-149.835"/>
</g>
<!-- FTC_A0032501 -->
<g id="node7" class="node"><title>FTC_A0032501</title>
<a xlink:href="http://localhost:9000/FTC_A0032501" xlink:title="FTC_A0032501\nAnti&#45;multicellular organismal process agent">
<polygon fill="none" stroke="black" points="314,-284 8.52651e-14,-284 0,-240 314,-240 314,-284"/>
<text text-anchor="middle" x="157" y="-267.4" font-family="Times Roman,serif" font-size="14.00">FTC_A0032501</text>
<text text-anchor="middle" x="157" y="-249.4" font-family="Times Roman,serif" font-size="14.00">Anti&#45;multicellular organismal process agent</text>
</a>
</g>
<!-- FTC_A0007599&#45;&gt;FTC_A0032501 -->
<g id="edge6" class="edge"><title>FTC_A0007599&#45;&gt;FTC_A0032501</title>
<path fill="none" stroke="black" d="M271.408,-204.072C252.239,-213.778 229.563,-225.259 209.475,-235.43"/>
<polygon fill="black" stroke="black" points="207.791,-232.36 200.45,-240 210.953,-238.605 207.791,-232.36"/>
</g>
<!-- FTC_A0044707 -->
<g id="node13" class="node"><title>FTC_A0044707</title>
<a xlink:href="http://localhost:9000/FTC_A0044707" xlink:title="FTC_A0044707\nAnti&#45;single&#45;multicellular organism process agent">
<polygon fill="none" stroke="black" points="678,-284 332,-284 332,-240 678,-240 678,-284"/>
<text text-anchor="middle" x="505" y="-267.4" font-family="Times Roman,serif" font-size="14.00">FTC_A0044707</text>
<text text-anchor="middle" x="505" y="-249.4" font-family="Times Roman,serif" font-size="14.00">Anti&#45;single&#45;multicellular organism process agent</text>
</a>
</g>
<!-- FTC_A0007599&#45;&gt;FTC_A0044707 -->
<g id="edge12" class="edge"><title>FTC_A0007599&#45;&gt;FTC_A0044707</title>
<path fill="none" stroke="black" d="M367.421,-204.072C390.992,-213.997 418.971,-225.777 443.524,-236.115"/>
<polygon fill="black" stroke="black" points="442.175,-239.345 452.75,-240 444.892,-232.894 442.175,-239.345"/>
</g>
<!-- FTC_A0008150 -->
<g id="node9" class="node"><title>FTC_A0008150</title>
<a xlink:href="http://localhost:9000/FTC_A0008150" xlink:title="FTC_A0008150\nAnti&#45;biological_process agent">
<polygon fill="none" stroke="black" points="583,-364 367,-364 367,-320 583,-320 583,-364"/>
<text text-anchor="middle" x="475" y="-347.4" font-family="Times Roman,serif" font-size="14.00">FTC_A0008150</text>
<text text-anchor="middle" x="475" y="-329.4" font-family="Times Roman,serif" font-size="14.00">Anti&#45;biological_process agent</text>
</a>
</g>
<!-- FTC_A0032501&#45;&gt;FTC_A0008150 -->
<g id="edge8" class="edge"><title>FTC_A0032501&#45;&gt;FTC_A0008150</title>
<path fill="none" stroke="black" d="M244.737,-284.072C286.011,-294.456 335.363,-306.871 377.773,-317.54"/>
<polygon fill="black" stroke="black" points="376.998,-320.954 387.55,-320 378.706,-314.166 376.998,-320.954"/>
</g>
<!-- FTC_C1 -->
<g id="node11" class="node"><title>FTC_C1</title>
<a xlink:href="http://localhost:9000/FTC_C1" xlink:title="FTC_C1\ntherapeutic agent">
<polygon fill="none" stroke="black" points="660,-444 520,-444 520,-400 660,-400 660,-444"/>
<text text-anchor="middle" x="590" y="-427.4" font-family="Times Roman,serif" font-size="14.00">FTC_C1</text>
<text text-anchor="middle" x="590" y="-409.4" font-family="Times Roman,serif" font-size="14.00">therapeutic agent</text>
</a>
</g>
<!-- FTC_A0008150&#45;&gt;FTC_C1 -->
<g id="edge10" class="edge"><title>FTC_A0008150&#45;&gt;FTC_C1</title>
<path fill="none" stroke="black" d="M506.729,-364.072C520.052,-373.341 535.704,-384.229 549.819,-394.048"/>
<polygon fill="black" stroke="black" points="548.167,-397.162 558.375,-400 552.165,-391.416 548.167,-397.162"/>
</g>
<!-- FTC_A0044707&#45;&gt;FTC_A0008150 -->
<g id="edge14" class="edge"><title>FTC_A0044707&#45;&gt;FTC_A0008150</title>
<path fill="none" stroke="black" d="M496.643,-284.284C493.62,-292.346 490.146,-301.611 486.878,-310.325"/>
<polygon fill="black" stroke="black" points="483.546,-309.243 483.312,-319.835 490.1,-311.701 483.546,-309.243"/>
</g>
<!-- FTC_A0050817&#45;&gt;FTC_A0032501 -->
<g id="edge18" class="edge"><title>FTC_A0050817&#45;&gt;FTC_A0032501</title>
<path fill="none" stroke="black" d="M417.634,-202.084C370.635,-212.889 312.313,-226.296 262.764,-237.686"/>
<polygon fill="black" stroke="black" points="261.938,-234.285 252.977,-239.936 263.507,-241.107 261.938,-234.285"/>
</g>
<!-- FTC_A0050817&#45;&gt;FTC_A0044707 -->
<g id="edge20" class="edge"><title>FTC_A0050817&#45;&gt;FTC_A0044707</title>
<path fill="none" stroke="black" d="M505,-204.284C505,-212.173 505,-221.213 505,-229.762"/>
<polygon fill="black" stroke="black" points="501.5,-229.835 505,-239.835 508.5,-229.835 501.5,-229.835"/>
</g>
<!-- FTC_P0008150&#45;&gt;FTC_C1 -->
<g id="edge24" class="edge"><title>FTC_P0008150&#45;&gt;FTC_C1</title>
<path fill="none" stroke="black" d="M673.995,-364.072C660.556,-373.341 644.769,-384.229 630.53,-394.048"/>
<polygon fill="black" stroke="black" points="628.145,-391.441 621.9,-400 632.119,-397.204 628.145,-391.441"/>
</g>
</g>
</svg>
