<?xml version="1.0" encoding="UTF-8" standalone="no"?>
<!DOCTYPE svg PUBLIC "-//W3C//DTD SVG 1.1//EN"
 "http://www.w3.org/Graphics/SVG/1.1/DTD/svg11.dtd">
<!-- Generated by graphviz version 2.26.3 (20100126.1600)
 -->
<!-- Title: G Pages: 1 -->
<svg viewBox="0.00 0.00 195.00 244.00" xmlns="http://www.w3.org/2000/svg" xmlns:xlink="http://www.w3.org/1999/xlink">
<g id="graph1" class="graph" transform="scale(1 1) rotate(0) translate(4 240)">
<title>G</title>
<polygon fill="white" stroke="white" points="-4,5 -4,-240 192,-240 192,5 -4,5"/>
<!-- FTC_A0007596 -->
<g id="node1" class="node"><title>FTC_A0007596</title>
<a target='_top' xlink:href="http://localhost:9000/FTC_A0007596" xlink:title="FTC_A0007596\nAnti&#45;blood coagulation\nagent ">
<polygon fill="#00ece4" stroke="springgreen" points="138,-36 48,-36 48,-1.06581e-14 138,-0 138,-36"/>
<text text-anchor="middle" x="93" y="-24.6" font-family="Times Roman,serif" font-size="6.00">FTC_A0007596</text>
<text text-anchor="middle" x="93" y="-16.6" font-family="Times Roman,serif" font-size="6.00">Anti&#45;blood coagulation</text>
<text text-anchor="middle" x="93" y="-8.6" font-family="Times Roman,serif" font-size="6.00">agent </text>
</a>
</g>
<!-- FTC_A0007599 -->
<g id="node3" class="node"><title>FTC_A0007599</title>
<a target='_top' xlink:href="http://localhost:9000/FTC_A0007599" xlink:title="FTC_A0007599\nAnti&#45;hemostasis agent\n">
<polygon fill="springgreen" stroke="springgreen" points="90,-86 2.84217e-14,-86 7.10543e-15,-50 90,-50 90,-86"/>
<text text-anchor="middle" x="45" y="-70.6" font-family="Times Roman,serif" font-size="6.00">FTC_A0007599</text>
<text text-anchor="middle" x="45" y="-62.6" font-family="Times Roman,serif" font-size="6.00">Anti&#45;hemostasis agent</text>
</a>
</g>
<!-- FTC_A0007596&#45;&gt;FTC_A0007599 -->
<g id="edge2" class="edge"><title>FTC_A0007596&#45;&gt;FTC_A0007599</title>
<path fill="none" stroke="gray" d="M75.6709,-36.0511C72.1799,-39.6876 68.4844,-43.5371 64.9133,-47.257"/>
<polygon fill="gray" stroke="gray" points="63.785,-46.9161 62.4649,-49.8074 65.3,-48.3704 63.785,-46.9161"/>
</g>
<!-- FTC_A0050817 -->
<g id="node14" class="node"><title>FTC_A0050817</title>
<a target='_top' xlink:href="http://localhost:9000/FTC_A0050817" xlink:title="FTC_A0050817\nAnti&#45;coagulation agent\n">
<polygon fill="springgreen" stroke="springgreen" points="187,-86 97,-86 97,-50 187,-50 187,-86"/>
<text text-anchor="middle" x="142" y="-70.6" font-family="Times Roman,serif" font-size="6.00">FTC_A0050817</text>
<text text-anchor="middle" x="142" y="-62.6" font-family="Times Roman,serif" font-size="6.00">Anti&#45;coagulation agent</text>
</a>
</g>
<!-- FTC_A0007596&#45;&gt;FTC_A0050817 -->
<g id="edge14" class="edge"><title>FTC_A0007596&#45;&gt;FTC_A0050817</title>
<path fill="none" stroke="gray" d="M110.69,-36.0511C114.254,-39.6876 118.026,-43.5371 121.672,-47.257"/>
<polygon fill="gray" stroke="gray" points="121.322,-48.3997 124.171,-49.8074 122.821,-46.9298 121.322,-48.3997"/>
</g>
<!-- FTC_A0032501 -->
<g id="node5" class="node"><title>FTC_A0032501</title>
<a target='_top' xlink:href="http://localhost:9000/FTC_A0032501" xlink:title="FTC_A0032501\nAnti&#45;multicellular\norganismal process\nagent ">
<polygon fill="springgreen" stroke="springgreen" points="90,-136 2.84217e-14,-136 7.10543e-15,-100 90,-100 90,-136"/>
<text text-anchor="middle" x="45" y="-128.6" font-family="Times Roman,serif" font-size="6.00">FTC_A0032501</text>
<text text-anchor="middle" x="45" y="-120.6" font-family="Times Roman,serif" font-size="6.00">Anti&#45;multicellular</text>
<text text-anchor="middle" x="45" y="-112.6" font-family="Times Roman,serif" font-size="6.00">organismal process</text>
<text text-anchor="middle" x="45" y="-104.6" font-family="Times Roman,serif" font-size="6.00">agent </text>
</a>
</g>
<!-- FTC_A0007599&#45;&gt;FTC_A0032501 -->
<g id="edge4" class="edge"><title>FTC_A0007599&#45;&gt;FTC_A0032501</title>
<path fill="none" stroke="gray" d="M45,-86.0511C45,-89.4078 45,-92.9461 45,-96.3964"/>
<polygon fill="gray" stroke="gray" points="43.9501,-96.8074 45,-99.8074 46.0501,-96.8074 43.9501,-96.8074"/>
</g>
<!-- FTC_A0044707 -->
<g id="node11" class="node"><title>FTC_A0044707</title>
<a target='_top' xlink:href="http://localhost:9000/FTC_A0044707" xlink:title="FTC_A0044707\nAnti&#45;single&#45;multicellular\norganism process agent\n">
<polygon fill="springgreen" stroke="springgreen" points="187,-136 97,-136 97,-100 187,-100 187,-136"/>
<text text-anchor="middle" x="142" y="-124.6" font-family="Times Roman,serif" font-size="6.00">FTC_A0044707</text>
<text text-anchor="middle" x="142" y="-116.6" font-family="Times Roman,serif" font-size="6.00">Anti&#45;single&#45;multicellular</text>
<text text-anchor="middle" x="142" y="-108.6" font-family="Times Roman,serif" font-size="6.00">organism process agent</text>
</a>
</g>
<!-- FTC_A0007599&#45;&gt;FTC_A0044707 -->
<g id="edge10" class="edge"><title>FTC_A0007599&#45;&gt;FTC_A0044707</title>
<path fill="none" stroke="gray" d="M80.0192,-86.0511C87.8489,-90.087 96.1877,-94.3854 104.127,-98.4778"/>
<polygon fill="gray" stroke="gray" points="103.884,-99.5341 107.032,-99.9753 104.847,-97.6675 103.884,-99.5341"/>
</g>
<!-- FTC_A0008150 -->
<g id="node7" class="node"><title>FTC_A0008150</title>
<a target='_top' xlink:href="http://localhost:9000/FTC_A0008150" xlink:title="FTC_A0008150\nAnti&#45;biological_process\nagent ">
<polygon fill="springgreen" stroke="springgreen" points="138,-186 48,-186 48,-150 138,-150 138,-186"/>
<text text-anchor="middle" x="93" y="-174.6" font-family="Times Roman,serif" font-size="6.00">FTC_A0008150</text>
<text text-anchor="middle" x="93" y="-166.6" font-family="Times Roman,serif" font-size="6.00">Anti&#45;biological_process</text>
<text text-anchor="middle" x="93" y="-158.6" font-family="Times Roman,serif" font-size="6.00">agent </text>
</a>
</g>
<!-- FTC_A0032501&#45;&gt;FTC_A0008150 -->
<g id="edge6" class="edge"><title>FTC_A0032501&#45;&gt;FTC_A0008150</title>
<path fill="none" stroke="gray" d="M62.3291,-136.051C65.8201,-139.688 69.5156,-143.537 73.0867,-147.257"/>
<polygon fill="gray" stroke="gray" points="72.7,-148.37 75.5351,-149.807 74.215,-146.916 72.7,-148.37"/>
</g>
<!-- FTC_C1 -->
<g id="node9" class="node"><title>FTC_C1</title>
<a target='_top' xlink:href="http://localhost:9000/FTC_C1" xlink:title="FTC_C1\ntherapeutic agent ">
<polygon fill="springgreen" stroke="springgreen" points="138,-236 48,-236 48,-200 138,-200 138,-236"/>
<text text-anchor="middle" x="93" y="-220.6" font-family="Times Roman,serif" font-size="6.00">FTC_C1</text>
<text text-anchor="middle" x="93" y="-212.6" font-family="Times Roman,serif" font-size="6.00">therapeutic agent </text>
</a>
</g>
<!-- FTC_A0008150&#45;&gt;FTC_C1 -->
<g id="edge8" class="edge"><title>FTC_A0008150&#45;&gt;FTC_C1</title>
<path fill="none" stroke="gray" d="M93,-186.051C93,-189.408 93,-192.946 93,-196.396"/>
<polygon fill="gray" stroke="gray" points="91.9501,-196.807 93,-199.807 94.0501,-196.807 91.9501,-196.807"/>
</g>
<!-- FTC_A0044707&#45;&gt;FTC_A0008150 -->
<g id="edge12" class="edge"><title>FTC_A0044707&#45;&gt;FTC_A0008150</title>
<path fill="none" stroke="gray" d="M124.31,-136.051C120.746,-139.688 116.974,-143.537 113.328,-147.257"/>
<polygon fill="gray" stroke="gray" points="112.179,-146.93 110.829,-149.807 113.678,-148.4 112.179,-146.93"/>
</g>
<!-- FTC_A0050817&#45;&gt;FTC_A0032501 -->
<g id="edge16" class="edge"><title>FTC_A0050817&#45;&gt;FTC_A0032501</title>
<path fill="none" stroke="gray" d="M106.981,-86.0511C99.1511,-90.087 90.8123,-94.3854 82.8731,-98.4778"/>
<polygon fill="gray" stroke="gray" points="82.1533,-97.6675 79.9678,-99.9753 83.1155,-99.5341 82.1533,-97.6675"/>
</g>
<!-- FTC_A0050817&#45;&gt;FTC_A0044707 -->
<g id="edge18" class="edge"><title>FTC_A0050817&#45;&gt;FTC_A0044707</title>
<path fill="none" stroke="gray" d="M142,-86.0511C142,-89.4078 142,-92.9461 142,-96.3964"/>
<polygon fill="gray" stroke="gray" points="140.95,-96.8074 142,-99.8074 143.05,-96.8074 140.95,-96.8074"/>
</g>
</g>
</svg>
