<?xml version="1.0" encoding="UTF-8" standalone="no"?>
<!DOCTYPE svg PUBLIC "-//W3C//DTD SVG 1.1//EN"
 "http://www.w3.org/Graphics/SVG/1.1/DTD/svg11.dtd">
<!-- Generated by graphviz version 2.26.3 (20100126.1600)
 -->
<!-- Title: G Pages: 1 -->
<svg viewBox="0.00 0.00 386.00 186.00" xmlns="http://www.w3.org/2000/svg" xmlns:xlink="http://www.w3.org/1999/xlink">
<g id="graph1" class="graph" transform="scale(1 1) rotate(0) translate(4 182)">
<title>G</title>
<polygon fill="white" stroke="white" points="-4,5 -4,-182 383,-182 383,5 -4,5"/>
<!-- FTC_P0042730 -->
<g id="node1" class="node"><title>FTC_P0042730</title>
<a target='_top' xlink:href="http://localhost:9000/FTC_P0042730" xlink:title="FTC_P0042730\nPro&#45;fibrinolysis agent">
<polygon fill="#00ece4" stroke="springgreen" points="336,-18 192,-18 192,-5.32907e-15 336,-0 336,-18"/>
<text text-anchor="middle" x="264" y="-11.6" font-family="Times Roman,serif" font-size="6.00">FTC_P0042730</text>
<text text-anchor="middle" x="264" y="-3.6" font-family="Times Roman,serif" font-size="6.00">Pro&#45;fibrinolysis agent</text>
</a>
</g>
<!-- FTC_A0007596 -->
<g id="node3" class="node"><title>FTC_A0007596</title>
<a target='_top' xlink:href="http://localhost:9000/FTC_A0007596" xlink:title="FTC_A0007596\nAnti&#45;blood coagulation agent">
<polygon fill="springgreen" stroke="springgreen" points="295,-50 151,-50 151,-32 295,-32 295,-50"/>
<text text-anchor="middle" x="223" y="-43.6" font-family="Times Roman,serif" font-size="6.00">FTC_A0007596</text>
<text text-anchor="middle" x="223" y="-35.6" font-family="Times Roman,serif" font-size="6.00">Anti&#45;blood coagulation agent</text>
</a>
</g>
<!-- FTC_P0042730&#45;&gt;FTC_A0007596 -->
<g id="edge2" class="edge"><title>FTC_P0042730&#45;&gt;FTC_A0007596</title>
<path fill="none" stroke="gray" d="M252.361,-18.0843C247.641,-21.7683 242.144,-26.058 237.192,-29.9231"/>
<polygon fill="gray" stroke="gray" points="236.53,-29.1083 234.811,-31.7818 237.822,-30.7637 236.53,-29.1083"/>
</g>
<!-- FTC_P0008150 -->
<g id="node20" class="node"><title>FTC_P0008150</title>
<a target='_top' xlink:href="http://localhost:9000/FTC_P0008150" xlink:title="FTC_P0008150\nPro&#45;biological_process agent">
<polygon fill="springgreen" stroke="springgreen" points="378,-146 234,-146 234,-128 378,-128 378,-146"/>
<text text-anchor="middle" x="306" y="-139.6" font-family="Times Roman,serif" font-size="6.00">FTC_P0008150</text>
<text text-anchor="middle" x="306" y="-131.6" font-family="Times Roman,serif" font-size="6.00">Pro&#45;biological_process agent</text>
</a>
</g>
<!-- FTC_P0042730&#45;&gt;FTC_P0008150 -->
<g id="edge22" class="edge"><title>FTC_P0042730&#45;&gt;FTC_P0008150</title>
<path fill="none" stroke="gray" d="M283.573,-18.0145C289.159,-21.5669 294.636,-26.2068 298,-32 315.166,-61.5647 311.522,-103.962 308.311,-124.67"/>
<polygon fill="gray" stroke="gray" points="307.247,-124.673 307.803,-127.802 309.32,-125.009 307.247,-124.673"/>
</g>
<!-- FTC_A0007599 -->
<g id="node5" class="node"><title>FTC_A0007599</title>
<a target='_top' xlink:href="http://localhost:9000/FTC_A0007599" xlink:title="FTC_A0007599\nAnti&#45;hemostasis agent">
<polygon fill="springgreen" stroke="springgreen" points="144,-82 4.26326e-14,-82 1.42109e-14,-64 144,-64 144,-82"/>
<text text-anchor="middle" x="72" y="-75.6" font-family="Times Roman,serif" font-size="6.00">FTC_A0007599</text>
<text text-anchor="middle" x="72" y="-67.6" font-family="Times Roman,serif" font-size="6.00">Anti&#45;hemostasis agent</text>
</a>
</g>
<!-- FTC_A0007596&#45;&gt;FTC_A0007599 -->
<g id="edge4" class="edge"><title>FTC_A0007596&#45;&gt;FTC_A0007599</title>
<path fill="none" stroke="gray" d="M180.133,-50.0843C160.764,-54.1891 137.846,-59.0459 118.105,-63.2294"/>
<polygon fill="gray" stroke="gray" points="117.429,-62.2992 114.712,-63.9484 117.865,-64.3536 117.429,-62.2992"/>
</g>
<!-- FTC_A0050817 -->
<g id="node16" class="node"><title>FTC_A0050817</title>
<a target='_top' xlink:href="http://localhost:9000/FTC_A0050817" xlink:title="FTC_A0050817\nAnti&#45;coagulation agent">
<polygon fill="springgreen" stroke="springgreen" points="295,-82 151,-82 151,-64 295,-64 295,-82"/>
<text text-anchor="middle" x="223" y="-75.6" font-family="Times Roman,serif" font-size="6.00">FTC_A0050817</text>
<text text-anchor="middle" x="223" y="-67.6" font-family="Times Roman,serif" font-size="6.00">Anti&#45;coagulation agent</text>
</a>
</g>
<!-- FTC_A0007596&#45;&gt;FTC_A0050817 -->
<g id="edge16" class="edge"><title>FTC_A0007596&#45;&gt;FTC_A0050817</title>
<path fill="none" stroke="gray" d="M223,-50.0843C223,-53.2994 223,-56.9759 223,-60.4288"/>
<polygon fill="gray" stroke="gray" points="221.95,-60.7818 223,-63.7818 224.05,-60.7819 221.95,-60.7818"/>
</g>
<!-- FTC_A0032501 -->
<g id="node7" class="node"><title>FTC_A0032501</title>
<a target='_top' xlink:href="http://localhost:9000/FTC_A0032501" xlink:title="FTC_A0032501\nAnti&#45;multicellular organismal process agent">
<polygon fill="springgreen" stroke="springgreen" points="144,-114 4.26326e-14,-114 1.42109e-14,-96 144,-96 144,-114"/>
<text text-anchor="middle" x="72" y="-107.6" font-family="Times Roman,serif" font-size="6.00">FTC_A0032501</text>
<text text-anchor="middle" x="72" y="-99.6" font-family="Times Roman,serif" font-size="6.00">Anti&#45;multicellular organismal process agent</text>
</a>
</g>
<!-- FTC_A0007599&#45;&gt;FTC_A0032501 -->
<g id="edge6" class="edge"><title>FTC_A0007599&#45;&gt;FTC_A0032501</title>
<path fill="none" stroke="gray" d="M72,-82.0843C72,-85.2994 72,-88.9759 72,-92.4288"/>
<polygon fill="gray" stroke="gray" points="70.9501,-92.7818 72,-95.7818 73.0501,-92.7819 70.9501,-92.7818"/>
</g>
<!-- FTC_A0044707 -->
<g id="node13" class="node"><title>FTC_A0044707</title>
<a target='_top' xlink:href="http://localhost:9000/FTC_A0044707" xlink:title="FTC_A0044707\nAnti&#45;single&#45;multicellular organism process agent">
<polygon fill="springgreen" stroke="springgreen" points="295,-114 151,-114 151,-96 295,-96 295,-114"/>
<text text-anchor="middle" x="223" y="-107.6" font-family="Times Roman,serif" font-size="6.00">FTC_A0044707</text>
<text text-anchor="middle" x="223" y="-99.6" font-family="Times Roman,serif" font-size="6.00">Anti&#45;single&#45;multicellular organism process agent</text>
</a>
</g>
<!-- FTC_A0007599&#45;&gt;FTC_A0044707 -->
<g id="edge12" class="edge"><title>FTC_A0007599&#45;&gt;FTC_A0044707</title>
<path fill="none" stroke="gray" d="M114.867,-82.0843C134.236,-86.1891 157.154,-91.0459 176.895,-95.2294"/>
<polygon fill="gray" stroke="gray" points="177.135,-96.3536 180.288,-95.9484 177.571,-94.2992 177.135,-96.3536"/>
</g>
<!-- FTC_A0008150 -->
<g id="node9" class="node"><title>FTC_A0008150</title>
<a target='_top' xlink:href="http://localhost:9000/FTC_A0008150" xlink:title="FTC_A0008150\nAnti&#45;biological_process agent">
<polygon fill="springgreen" stroke="springgreen" points="227,-146 83,-146 83,-128 227,-128 227,-146"/>
<text text-anchor="middle" x="155" y="-139.6" font-family="Times Roman,serif" font-size="6.00">FTC_A0008150</text>
<text text-anchor="middle" x="155" y="-131.6" font-family="Times Roman,serif" font-size="6.00">Anti&#45;biological_process agent</text>
</a>
</g>
<!-- FTC_A0032501&#45;&gt;FTC_A0008150 -->
<g id="edge8" class="edge"><title>FTC_A0032501&#45;&gt;FTC_A0008150</title>
<path fill="none" stroke="gray" d="M95.5625,-114.084C105.814,-118.037 117.873,-122.686 128.44,-126.76"/>
<polygon fill="gray" stroke="gray" points="128.202,-127.793 131.379,-127.893 128.957,-125.834 128.202,-127.793"/>
</g>
<!-- FTC_C1 -->
<g id="node11" class="node"><title>FTC_C1</title>
<a target='_top' xlink:href="http://localhost:9000/FTC_C1" xlink:title="FTC_C1\ntherapeutic agent">
<polygon fill="springgreen" stroke="springgreen" points="302,-178 158,-178 158,-160 302,-160 302,-178"/>
<text text-anchor="middle" x="230" y="-171.6" font-family="Times Roman,serif" font-size="6.00">FTC_C1</text>
<text text-anchor="middle" x="230" y="-163.6" font-family="Times Roman,serif" font-size="6.00">therapeutic agent</text>
</a>
</g>
<!-- FTC_A0008150&#45;&gt;FTC_C1 -->
<g id="edge10" class="edge"><title>FTC_A0008150&#45;&gt;FTC_C1</title>
<path fill="none" stroke="gray" d="M176.291,-146.084C185.475,-150.003 196.265,-154.606 205.755,-158.656"/>
<polygon fill="gray" stroke="gray" points="205.484,-159.681 208.655,-159.893 206.308,-157.75 205.484,-159.681"/>
</g>
<!-- FTC_A0044707&#45;&gt;FTC_A0008150 -->
<g id="edge14" class="edge"><title>FTC_A0044707&#45;&gt;FTC_A0008150</title>
<path fill="none" stroke="gray" d="M203.696,-114.084C195.583,-117.902 186.087,-122.371 177.646,-126.343"/>
<polygon fill="gray" stroke="gray" points="176.856,-125.554 174.589,-127.782 177.75,-127.454 176.856,-125.554"/>
</g>
<!-- FTC_A0050817&#45;&gt;FTC_A0032501 -->
<g id="edge18" class="edge"><title>FTC_A0050817&#45;&gt;FTC_A0032501</title>
<path fill="none" stroke="gray" d="M180.133,-82.0843C160.764,-86.1891 137.846,-91.0459 118.105,-95.2294"/>
<polygon fill="gray" stroke="gray" points="117.429,-94.2992 114.712,-95.9484 117.865,-96.3536 117.429,-94.2992"/>
</g>
<!-- FTC_A0050817&#45;&gt;FTC_A0044707 -->
<g id="edge20" class="edge"><title>FTC_A0050817&#45;&gt;FTC_A0044707</title>
<path fill="none" stroke="gray" d="M223,-82.0843C223,-85.2994 223,-88.9759 223,-92.4288"/>
<polygon fill="gray" stroke="gray" points="221.95,-92.7818 223,-95.7818 224.05,-92.7819 221.95,-92.7818"/>
</g>
<!-- FTC_P0008150&#45;&gt;FTC_C1 -->
<g id="edge24" class="edge"><title>FTC_P0008150&#45;&gt;FTC_C1</title>
<path fill="none" stroke="gray" d="M284.425,-146.084C275.118,-150.003 264.185,-154.606 254.568,-158.656"/>
<polygon fill="gray" stroke="gray" points="253.987,-157.761 251.629,-159.893 254.802,-159.696 253.987,-157.761"/>
</g>
</g>
</svg>
