<?xml version="1.0" encoding="UTF-8" standalone="no"?>
<!DOCTYPE svg PUBLIC "-//W3C//DTD SVG 1.1//EN"
 "http://www.w3.org/Graphics/SVG/1.1/DTD/svg11.dtd">
<!-- Generated by graphviz version 2.26.3 (20100126.1600)
 -->
<!-- Title: G Pages: 1 -->
<svg width="686pt" height="372pt"
 viewBox="0.00 0.00 686.00 372.00" xmlns="http://www.w3.org/2000/svg" xmlns:xlink="http://www.w3.org/1999/xlink">
<g id="graph1" class="graph" transform="scale(1 1) rotate(0) translate(4 368)">
<title>G</title>
<polygon fill="white" stroke="white" points="-4,5 -4,-368 683,-368 683,5 -4,5"/>
<!-- FTC_A0007596 -->
<g id="node1" class="node"><title>FTC_A0007596</title>
<a xlink:href="http://localhost:9000/FTC_A0007596" xlink:title="FTC_A0007596\nAnti&#45;blood coagulation agent">
<polygon fill="none" stroke="black" points="438,-44 224,-44 224,-1.06581e-14 438,-0 438,-44"/>
<text text-anchor="middle" x="331" y="-27.4" font-family="Times Roman,serif" font-size="14.00">FTC_A0007596</text>
<text text-anchor="middle" x="331" y="-9.4" font-family="Times Roman,serif" font-size="14.00">Anti&#45;blood coagulation agent</text>
</a>
</g>
<!-- FTC_A0007599 -->
<g id="node3" class="node"><title>FTC_A0007599</title>
<a xlink:href="http://localhost:9000/FTC_A0007599" xlink:title="FTC_A0007599\nAnti&#45;hemostasis agent">
<polygon fill="none" stroke="black" points="321,-124 151,-124 151,-80 321,-80 321,-124"/>
<text text-anchor="middle" x="236" y="-107.4" font-family="Times Roman,serif" font-size="14.00">FTC_A0007599</text>
<text text-anchor="middle" x="236" y="-89.4" font-family="Times Roman,serif" font-size="14.00">Anti&#45;hemostasis agent</text>
</a>
</g>
<!-- FTC_A0007596&#45;&gt;FTC_A0007599 -->
<g id="edge2" class="edge"><title>FTC_A0007596&#45;&gt;FTC_A0007599</title>
<path fill="none" stroke="black" d="M304.789,-44.0721C293.991,-53.1658 281.341,-63.8183 269.854,-73.4911"/>
<polygon fill="black" stroke="black" points="267.52,-70.8813 262.125,-79.9999 272.029,-76.2357 267.52,-70.8813"/>
</g>
<!-- FTC_A0050817 -->
<g id="node14" class="node"><title>FTC_A0050817</title>
<a xlink:href="http://localhost:9000/FTC_A0050817" xlink:title="FTC_A0050817\nAnti&#45;coagulation agent">
<polygon fill="none" stroke="black" points="513,-124 339,-124 339,-80 513,-80 513,-124"/>
<text text-anchor="middle" x="426" y="-107.4" font-family="Times Roman,serif" font-size="14.00">FTC_A0050817</text>
<text text-anchor="middle" x="426" y="-89.4" font-family="Times Roman,serif" font-size="14.00">Anti&#45;coagulation agent</text>
</a>
</g>
<!-- FTC_A0007596&#45;&gt;FTC_A0050817 -->
<g id="edge14" class="edge"><title>FTC_A0007596&#45;&gt;FTC_A0050817</title>
<path fill="none" stroke="black" d="M357.211,-44.0721C368.009,-53.1658 380.659,-63.8183 392.146,-73.4911"/>
<polygon fill="black" stroke="black" points="389.971,-76.2357 399.875,-79.9999 394.48,-70.8813 389.971,-76.2357"/>
</g>
<!-- FTC_A0032501 -->
<g id="node5" class="node"><title>FTC_A0032501</title>
<a xlink:href="http://localhost:9000/FTC_A0032501" xlink:title="FTC_A0032501\nAnti&#45;multicellular organismal process agent">
<polygon fill="none" stroke="black" points="314,-204 8.52651e-14,-204 0,-160 314,-160 314,-204"/>
<text text-anchor="middle" x="157" y="-187.4" font-family="Times Roman,serif" font-size="14.00">FTC_A0032501</text>
<text text-anchor="middle" x="157" y="-169.4" font-family="Times Roman,serif" font-size="14.00">Anti&#45;multicellular organismal process agent</text>
</a>
</g>
<!-- FTC_A0007599&#45;&gt;FTC_A0032501 -->
<g id="edge4" class="edge"><title>FTC_A0007599&#45;&gt;FTC_A0032501</title>
<path fill="none" stroke="black" d="M213.994,-124.284C205.348,-133.04 195.301,-143.214 186.072,-152.56"/>
<polygon fill="black" stroke="black" points="183.424,-150.26 178.888,-159.835 188.405,-155.179 183.424,-150.26"/>
</g>
<!-- FTC_A0044707 -->
<g id="node11" class="node"><title>FTC_A0044707</title>
<a xlink:href="http://localhost:9000/FTC_A0044707" xlink:title="FTC_A0044707\nAnti&#45;single&#45;multicellular organism process agent">
<polygon fill="none" stroke="black" points="678,-204 332,-204 332,-160 678,-160 678,-204"/>
<text text-anchor="middle" x="505" y="-187.4" font-family="Times Roman,serif" font-size="14.00">FTC_A0044707</text>
<text text-anchor="middle" x="505" y="-169.4" font-family="Times Roman,serif" font-size="14.00">Anti&#45;single&#45;multicellular organism process agent</text>
</a>
</g>
<!-- FTC_A0007599&#45;&gt;FTC_A0044707 -->
<g id="edge10" class="edge"><title>FTC_A0007599&#45;&gt;FTC_A0044707</title>
<path fill="none" stroke="black" d="M310.218,-124.072C344.617,-134.303 385.651,-146.506 421.164,-157.067"/>
<polygon fill="black" stroke="black" points="420.442,-160.504 431.025,-160 422.437,-153.794 420.442,-160.504"/>
</g>
<!-- FTC_A0008150 -->
<g id="node7" class="node"><title>FTC_A0008150</title>
<a xlink:href="http://localhost:9000/FTC_A0008150" xlink:title="FTC_A0008150\nAnti&#45;biological_process agent">
<polygon fill="none" stroke="black" points="439,-284 223,-284 223,-240 439,-240 439,-284"/>
<text text-anchor="middle" x="331" y="-267.4" font-family="Times Roman,serif" font-size="14.00">FTC_A0008150</text>
<text text-anchor="middle" x="331" y="-249.4" font-family="Times Roman,serif" font-size="14.00">Anti&#45;biological_process agent</text>
</a>
</g>
<!-- FTC_A0032501&#45;&gt;FTC_A0008150 -->
<g id="edge6" class="edge"><title>FTC_A0032501&#45;&gt;FTC_A0008150</title>
<path fill="none" stroke="black" d="M205.007,-204.072C226.307,-213.865 251.539,-225.466 273.808,-235.705"/>
<polygon fill="black" stroke="black" points="272.602,-239.003 283.15,-240 275.526,-232.643 272.602,-239.003"/>
</g>
<!-- FTC_C1 -->
<g id="node9" class="node"><title>FTC_C1</title>
<a xlink:href="http://localhost:9000/FTC_C1" xlink:title="FTC_C1\ntherapeutic agent">
<polygon fill="none" stroke="black" points="401,-364 261,-364 261,-320 401,-320 401,-364"/>
<text text-anchor="middle" x="331" y="-347.4" font-family="Times Roman,serif" font-size="14.00">FTC_C1</text>
<text text-anchor="middle" x="331" y="-329.4" font-family="Times Roman,serif" font-size="14.00">therapeutic agent</text>
</a>
</g>
<!-- FTC_A0008150&#45;&gt;FTC_C1 -->
<g id="edge8" class="edge"><title>FTC_A0008150&#45;&gt;FTC_C1</title>
<path fill="none" stroke="black" d="M331,-284.284C331,-292.173 331,-301.213 331,-309.762"/>
<polygon fill="black" stroke="black" points="327.5,-309.835 331,-319.835 334.5,-309.835 327.5,-309.835"/>
</g>
<!-- FTC_A0044707&#45;&gt;FTC_A0008150 -->
<g id="edge12" class="edge"><title>FTC_A0044707&#45;&gt;FTC_A0008150</title>
<path fill="none" stroke="black" d="M456.993,-204.072C435.693,-213.865 410.461,-225.466 388.192,-235.705"/>
<polygon fill="black" stroke="black" points="386.474,-232.643 378.85,-240 389.398,-239.003 386.474,-232.643"/>
</g>
<!-- FTC_A0050817&#45;&gt;FTC_A0032501 -->
<g id="edge16" class="edge"><title>FTC_A0050817&#45;&gt;FTC_A0032501</title>
<path fill="none" stroke="black" d="M351.782,-124.072C317.383,-134.303 276.349,-146.506 240.836,-157.067"/>
<polygon fill="black" stroke="black" points="239.563,-153.794 230.975,-160 241.558,-160.504 239.563,-153.794"/>
</g>
<!-- FTC_A0050817&#45;&gt;FTC_A0044707 -->
<g id="edge18" class="edge"><title>FTC_A0050817&#45;&gt;FTC_A0044707</title>
<path fill="none" stroke="black" d="M448.006,-124.284C456.652,-133.04 466.699,-143.214 475.928,-152.56"/>
<polygon fill="black" stroke="black" points="473.595,-155.179 483.112,-159.835 478.576,-150.26 473.595,-155.179"/>
</g>
</g>
</svg>
